<?xml version="1.0" encoding="UTF-8" standalone="no"?>
<!DOCTYPE svg PUBLIC "-//W3C//DTD SVG 1.1//EN"
 "http://www.w3.org/Graphics/SVG/1.1/DTD/svg11.dtd">
<!-- Generated by graphviz version 2.34.0 (20131108.0607)
 -->
<!-- Title: controllers_diagram Pages: 1 -->
<svg width="1090pt" height="569pt"
 viewBox="0.00 0.00 1089.99 569.35" xmlns="http://www.w3.org/2000/svg" xmlns:xlink="http://www.w3.org/1999/xlink">
<g id="graph0" class="graph" transform="scale(1 1) rotate(0) translate(4 565.347)">
<title>controllers_diagram</title>
<polygon fill="white" stroke="white" points="-4,4 -4,-565.347 1085.99,-565.347 1085.99,4 -4,4"/>
<!-- _diagram_info -->
<g id="node1" class="node"><title>_diagram_info</title>
<text text-anchor="start" x="481" y="-69" font-family="Times,serif" font-size="13.00">Controllers diagram</text>
<text text-anchor="start" x="481" y="-53.4" font-family="Times,serif" font-size="13.00">Date: Nov 08 2013 &#45; 12:31</text>
<text text-anchor="start" x="481" y="-37.8" font-family="Times,serif" font-size="13.00">Migration version: 20130806072023</text>
<text text-anchor="start" x="481" y="-22.2" font-family="Times,serif" font-size="13.00">Generated by RailRoady 1.1.1</text>
<text text-anchor="start" x="481" y="-6.6" font-family="Times,serif" font-size="13.00">http://railroady.prestonlee.com</text>
</g>
<!-- ApisController -->
<g id="node2" class="node"><title>ApisController</title>
<ellipse fill="none" stroke="black" cx="68.9735" cy="-159.189" rx="68.9469" ry="18"/>
<text text-anchor="middle" x="68.9735" y="-153.589" font-family="Times,serif" font-size="14.00">ApisController</text>
</g>
<!-- ApplicationController -->
<g id="node3" class="node"><title>ApplicationController</title>
<ellipse fill="none" stroke="black" cx="789.855" cy="-409.174" rx="96.1448" ry="18"/>
<text text-anchor="middle" x="789.855" y="-403.574" font-family="Times,serif" font-size="14.00">ApplicationController</text>
</g>
<!-- CameosController -->
<g id="node4" class="node"><title>CameosController</title>
<ellipse fill="none" stroke="black" cx="1000.15" cy="-410.69" rx="81.6834" ry="18"/>
<text text-anchor="middle" x="1000.15" y="-405.09" font-family="Times,serif" font-size="14.00">CameosController</text>
</g>
<!-- ApplicationController&#45;&gt;CameosController -->
<g id="edge2" class="edge"><title>ApplicationController&#45;&gt;CameosController</title>
<path fill="none" stroke="black" d="M886.384,-409.87C895.146,-409.933 903.989,-409.997 912.667,-410.059"/>
<polyline fill="none" stroke="black" points="918.047,-410.098 913.047,-410.062 "/>
</g>
<!-- CommentsController -->
<g id="node5" class="node"><title>CommentsController</title>
<ellipse fill="none" stroke="black" cx="734.064" cy="-280.817" rx="92.6566" ry="18"/>
<text text-anchor="middle" x="734.064" y="-275.217" font-family="Times,serif" font-size="14.00">CommentsController</text>
</g>
<!-- ApplicationController&#45;&gt;CommentsController -->
<g id="edge3" class="edge"><title>ApplicationController&#45;&gt;CommentsController</title>
<path fill="none" stroke="black" d="M781.979,-391.056C772.011,-368.122 754.834,-328.602 743.981,-303.634"/>
<polyline fill="none" stroke="black" points="741.899,-298.843 743.892,-303.429 "/>
</g>
<!-- HomeController -->
<g id="node7" class="node"><title>HomeController</title>
<ellipse fill="none" stroke="black" cx="549.084" cy="-507.382" rx="74.1605" ry="18"/>
<text text-anchor="middle" x="549.084" y="-501.782" font-family="Times,serif" font-size="14.00">HomeController</text>
</g>
<!-- ApplicationController&#45;&gt;HomeController -->
<g id="edge5" class="edge"><title>ApplicationController&#45;&gt;HomeController</title>
<path fill="none" stroke="black" d="M749.555,-425.612C705.898,-443.419 636.524,-471.716 591.905,-489.915"/>
<polyline fill="none" stroke="black" points="587.129,-491.864 591.758,-489.975 "/>
</g>
<!-- PasswordResetsController -->
<g id="node9" class="node"><title>PasswordResetsController</title>
<ellipse fill="none" stroke="black" cx="949.763" cy="-543.347" rx="112.925" ry="18"/>
<text text-anchor="middle" x="949.763" y="-537.747" font-family="Times,serif" font-size="14.00">PasswordResetsController</text>
</g>
<!-- ApplicationController&#45;&gt;PasswordResetsController -->
<g id="edge7" class="edge"><title>ApplicationController&#45;&gt;PasswordResetsController</title>
<path fill="none" stroke="black" d="M811.089,-426.991C840.36,-451.551 893.03,-495.745 924.354,-522.028"/>
<polyline fill="none" stroke="black" points="928.44,-525.456 924.61,-522.242 "/>
</g>
<!-- SessionsController -->
<g id="node11" class="node"><title>SessionsController</title>
<ellipse fill="none" stroke="black" cx="732.97" cy="-537.302" rx="84.0023" ry="18"/>
<text text-anchor="middle" x="732.97" y="-531.702" font-family="Times,serif" font-size="14.00">SessionsController</text>
</g>
<!-- ApplicationController&#45;&gt;SessionsController -->
<g id="edge9" class="edge"><title>ApplicationController&#45;&gt;SessionsController</title>
<path fill="none" stroke="black" d="M781.825,-427.26C771.661,-450.153 754.147,-489.603 743.081,-514.526"/>
<polyline fill="none" stroke="black" points="740.958,-519.308 742.987,-514.738 "/>
</g>
<!-- ShowsController -->
<g id="node12" class="node"><title>ShowsController</title>
<ellipse fill="none" stroke="black" cx="549.49" cy="-310.985" rx="76.4793" ry="18"/>
<text text-anchor="middle" x="549.49" y="-305.385" font-family="Times,serif" font-size="14.00">ShowsController</text>
</g>
<!-- ApplicationController&#45;&gt;ShowsController -->
<g id="edge10" class="edge"><title>ApplicationController&#45;&gt;ShowsController</title>
<path fill="none" stroke="black" d="M749.623,-392.739C706.168,-374.988 637.192,-346.811 592.635,-328.61"/>
<polyline fill="none" stroke="black" points="587.864,-326.661 592.493,-328.552 "/>
</g>
<!-- UsersController -->
<g id="node13" class="node"><title>UsersController</title>
<ellipse fill="none" stroke="black" cx="951.248" cy="-276" rx="72.9449" ry="18"/>
<text text-anchor="middle" x="951.248" y="-270.4" font-family="Times,serif" font-size="14.00">UsersController</text>
</g>
<!-- ApplicationController&#45;&gt;UsersController -->
<g id="edge11" class="edge"><title>ApplicationController&#45;&gt;UsersController</title>
<path fill="none" stroke="black" d="M811.286,-391.489C840.993,-366.977 894.58,-322.76 926.128,-296.727"/>
<polyline fill="none" stroke="black" points="930.24,-293.334 926.384,-296.517 "/>
</g>
<!-- DocumentationsController -->
<g id="node6" class="node"><title>DocumentationsController</title>
<ellipse fill="none" stroke="black" cx="589.114" cy="-169.219" rx="114.047" ry="18"/>
<text text-anchor="middle" x="589.114" y="-163.619" font-family="Times,serif" font-size="14.00">DocumentationsController</text>
</g>
<!-- ParametersController -->
<g id="node8" class="node"><title>ParametersController</title>
<ellipse fill="none" stroke="black" cx="327.016" cy="-18" rx="93.7598" ry="18"/>
<text text-anchor="middle" x="327.016" y="-12.4" font-family="Times,serif" font-size="14.00">ParametersController</text>
</g>
<!-- ResourcesController -->
<g id="node10" class="node"><title>ResourcesController</title>
<ellipse fill="none" stroke="black" cx="298.774" cy="-314.053" rx="90.3374" ry="18"/>
<text text-anchor="middle" x="298.774" y="-308.453" font-family="Times,serif" font-size="14.00">ResourcesController</text>
</g>
<!-- InheritedResources::Base -->
<g id="node14" class="node"><title>InheritedResources::Base</title>
<ellipse fill="none" stroke="black" cx="356.85" cy="-172.667" rx="109.937" ry="18"/>
<text text-anchor="middle" x="356.85" y="-167.067" font-family="Times,serif" font-size="14.00">InheritedResources::Base</text>
</g>
<!-- InheritedResources::Base&#45;&gt;ApisController -->
<g id="edge1" class="edge"><title>InheritedResources::Base&#45;&gt;ApisController</title>
<path fill="none" stroke="black" d="M251.29,-167.725C215.038,-166.028 175.282,-164.166 142.172,-162.616"/>
<polyline fill="none" stroke="black" points="136.917,-162.37 141.912,-162.604 "/>
</g>
<!-- InheritedResources::Base&#45;&gt;DocumentationsController -->
<g id="edge4" class="edge"><title>InheritedResources::Base&#45;&gt;DocumentationsController</title>
<path fill="none" stroke="black" d="M466.181,-171.044C467.52,-171.024 468.859,-171.004 470.199,-170.984"/>
<polyline fill="none" stroke="black" points="475.369,-170.907 470.37,-170.982 "/>
</g>
<!-- InheritedResources::Base&#45;&gt;ParametersController -->
<g id="edge6" class="edge"><title>InheritedResources::Base&#45;&gt;ParametersController</title>
<path fill="none" stroke="black" d="M353.37,-154.622C347.964,-126.6 337.552,-72.6213 331.56,-41.5606"/>
<polyline fill="none" stroke="black" points="330.567,-36.4095 331.514,-41.319 "/>
</g>
<!-- InheritedResources::Base&#45;&gt;ResourcesController -->
<g id="edge8" class="edge"><title>InheritedResources::Base&#45;&gt;ResourcesController</title>
<path fill="none" stroke="black" d="M349.377,-190.861C338.835,-216.525 319.607,-263.335 308.13,-291.277"/>
<polyline fill="none" stroke="black" points="306.219,-295.929 308.119,-291.304 "/>
</g>
</g>
</svg>
