<?xml version="1.0" encoding="UTF-8" standalone="no"?>
<!DOCTYPE svg PUBLIC "-//W3C//DTD SVG 1.1//EN"
 "http://www.w3.org/Graphics/SVG/1.1/DTD/svg11.dtd">
<!-- Generated by graphviz version 2.34.0 (20131108.0607)
 -->
<!-- Title: controllers_diagram Pages: 1 -->
<svg width="1416pt" height="1228pt"
 viewBox="0.00 0.00 1415.88 1227.59" xmlns="http://www.w3.org/2000/svg" xmlns:xlink="http://www.w3.org/1999/xlink">
<g id="graph0" class="graph" transform="scale(1 1) rotate(0) translate(4 1223.59)">
<title>controllers_diagram</title>
<polygon fill="white" stroke="white" points="-4,4 -4,-1223.59 1411.88,-1223.59 1411.88,4 -4,4"/>
<!-- _diagram_info -->
<g id="node1" class="node"><title>_diagram_info</title>
<text text-anchor="start" x="1022" y="-1005" font-family="Times,serif" font-size="13.00">Controllers diagram</text>
<text text-anchor="start" x="1022" y="-989.4" font-family="Times,serif" font-size="13.00">Date: Nov 08 2013 &#45; 12:31</text>
<text text-anchor="start" x="1022" y="-973.8" font-family="Times,serif" font-size="13.00">Migration version: 20130806072023</text>
<text text-anchor="start" x="1022" y="-958.2" font-family="Times,serif" font-size="13.00">Generated by RailRoady 1.1.1</text>
<text text-anchor="start" x="1022" y="-942.6" font-family="Times,serif" font-size="13.00">http://railroady.prestonlee.com</text>
</g>
<!-- ApisController -->
<g id="node2" class="node"><title>ApisController</title>
<path fill="none" stroke="black" d="M948,-140.662C948,-140.662 1048.84,-140.662 1048.84,-140.662 1054.84,-140.662 1060.84,-146.662 1060.84,-152.662 1060.84,-152.662 1060.84,-411.862 1060.84,-411.862 1060.84,-417.862 1054.84,-423.862 1048.84,-423.862 1048.84,-423.862 948,-423.862 948,-423.862 942,-423.862 936,-417.862 936,-411.862 936,-411.862 936,-152.662 936,-152.662 936,-146.662 942,-140.662 948,-140.662"/>
<text text-anchor="middle" x="998.421" y="-405.862" font-family="Times,serif" font-size="14.00">ApisController</text>
<polyline fill="none" stroke="black" points="936,-399.062 1060.84,-399.062 "/>
<polyline fill="none" stroke="black" points="936,-375.062 1060.84,-375.062 "/>
<text text-anchor="start" x="944" y="-357.062" font-family="Times,serif" font-size="14.00">collection_path</text>
<text text-anchor="start" x="944" y="-340.262" font-family="Times,serif" font-size="14.00">collection_url</text>
<text text-anchor="start" x="944" y="-323.462" font-family="Times,serif" font-size="14.00">edit_parent_path</text>
<text text-anchor="start" x="944" y="-306.662" font-family="Times,serif" font-size="14.00">edit_parent_url</text>
<text text-anchor="start" x="944" y="-289.862" font-family="Times,serif" font-size="14.00">edit_resource_path</text>
<text text-anchor="start" x="944" y="-273.062" font-family="Times,serif" font-size="14.00">edit_resource_url</text>
<text text-anchor="start" x="944" y="-256.262" font-family="Times,serif" font-size="14.00">new_resource_path</text>
<text text-anchor="start" x="944" y="-239.462" font-family="Times,serif" font-size="14.00">new_resource_url</text>
<text text-anchor="start" x="944" y="-222.662" font-family="Times,serif" font-size="14.00">parent_path</text>
<text text-anchor="start" x="944" y="-205.862" font-family="Times,serif" font-size="14.00">parent_url</text>
<text text-anchor="start" x="944" y="-189.062" font-family="Times,serif" font-size="14.00">resource_path</text>
<text text-anchor="start" x="944" y="-172.262" font-family="Times,serif" font-size="14.00">resource_url</text>
<polyline fill="none" stroke="black" points="936,-165.462 1060.84,-165.462 "/>
<text text-anchor="start" x="944" y="-147.462" font-family="Times,serif" font-size="14.00">_layout</text>
</g>
<!-- ApplicationController -->
<g id="node3" class="node"><title>ApplicationController</title>
<path fill="none" stroke="black" d="M369.016,-552.857C369.016,-552.857 547.65,-552.857 547.65,-552.857 553.65,-552.857 559.65,-558.857 559.65,-564.857 559.65,-564.857 559.65,-740.057 559.65,-740.057 559.65,-746.057 553.65,-752.057 547.65,-752.057 547.65,-752.057 369.016,-752.057 369.016,-752.057 363.016,-752.057 357.016,-746.057 357.016,-740.057 357.016,-740.057 357.016,-564.857 357.016,-564.857 357.016,-558.857 363.016,-552.857 369.016,-552.857"/>
<text text-anchor="middle" x="458.333" y="-734.057" font-family="Times,serif" font-size="14.00">ApplicationController</text>
<polyline fill="none" stroke="black" points="357.016,-727.257 559.65,-727.257 "/>
<text text-anchor="start" x="365.016" y="-709.257" font-family="Times,serif" font-size="14.00">_one_time_conditions_valid_14?</text>
<text text-anchor="start" x="365.016" y="-692.457" font-family="Times,serif" font-size="14.00">_one_time_conditions_valid_16?</text>
<text text-anchor="start" x="365.016" y="-675.657" font-family="Times,serif" font-size="14.00">parse_filters_from_url</text>
<text text-anchor="start" x="365.016" y="-658.857" font-family="Times,serif" font-size="14.00">redirect_to_root_page</text>
<text text-anchor="start" x="365.016" y="-642.057" font-family="Times,serif" font-size="14.00">require_user</text>
<text text-anchor="start" x="365.016" y="-625.257" font-family="Times,serif" font-size="14.00">set_locale</text>
<polyline fill="none" stroke="black" points="357.016,-618.457 559.65,-618.457 "/>
<polyline fill="none" stroke="black" points="357.016,-594.457 559.65,-594.457 "/>
<text text-anchor="start" x="365.016" y="-576.457" font-family="Times,serif" font-size="14.00">_layout</text>
<text text-anchor="start" x="365.016" y="-559.657" font-family="Times,serif" font-size="14.00">current_user</text>
</g>
<!-- CameosController -->
<g id="node4" class="node"><title>CameosController</title>
<path fill="none" stroke="black" d="M719.77,-514.255C719.77,-514.255 905.405,-514.255 905.405,-514.255 911.405,-514.255 917.405,-520.255 917.405,-526.255 917.405,-526.255 917.405,-819.055 917.405,-819.055 917.405,-825.055 911.405,-831.055 905.405,-831.055 905.405,-831.055 719.77,-831.055 719.77,-831.055 713.77,-831.055 707.77,-825.055 707.77,-819.055 707.77,-819.055 707.77,-526.255 707.77,-526.255 707.77,-520.255 713.77,-514.255 719.77,-514.255"/>
<text text-anchor="middle" x="812.587" y="-813.055" font-family="Times,serif" font-size="14.00">CameosController</text>
<polyline fill="none" stroke="black" points="707.77,-806.255 917.405,-806.255 "/>
<text text-anchor="start" x="715.77" y="-788.255" font-family="Times,serif" font-size="14.00">_one_time_conditions_valid_100?</text>
<text text-anchor="start" x="715.77" y="-771.455" font-family="Times,serif" font-size="14.00">_one_time_conditions_valid_96?</text>
<text text-anchor="start" x="715.77" y="-754.655" font-family="Times,serif" font-size="14.00">cameo_clipping</text>
<text text-anchor="start" x="715.77" y="-737.855" font-family="Times,serif" font-size="14.00">check_password</text>
<text text-anchor="start" x="715.77" y="-721.055" font-family="Times,serif" font-size="14.00">create</text>
<text text-anchor="start" x="715.77" y="-704.255" font-family="Times,serif" font-size="14.00">destroy</text>
<text text-anchor="start" x="715.77" y="-687.455" font-family="Times,serif" font-size="14.00">edit</text>
<text text-anchor="start" x="715.77" y="-670.655" font-family="Times,serif" font-size="14.00">index</text>
<text text-anchor="start" x="715.77" y="-653.855" font-family="Times,serif" font-size="14.00">invite_friend</text>
<text text-anchor="start" x="715.77" y="-637.055" font-family="Times,serif" font-size="14.00">new</text>
<text text-anchor="start" x="715.77" y="-620.255" font-family="Times,serif" font-size="14.00">show</text>
<text text-anchor="start" x="715.77" y="-603.455" font-family="Times,serif" font-size="14.00">update</text>
<text text-anchor="start" x="715.77" y="-586.655" font-family="Times,serif" font-size="14.00">validate_video</text>
<text text-anchor="start" x="715.77" y="-569.855" font-family="Times,serif" font-size="14.00">video_player</text>
<polyline fill="none" stroke="black" points="707.77,-563.055 917.405,-563.055 "/>
<polyline fill="none" stroke="black" points="707.77,-539.055 917.405,-539.055 "/>
<text text-anchor="start" x="715.77" y="-521.055" font-family="Times,serif" font-size="14.00">_layout</text>
</g>
<!-- ApplicationController&#45;&gt;CameosController -->
<g id="edge2" class="edge"><title>ApplicationController&#45;&gt;CameosController</title>
<path fill="none" stroke="black" d="M559.848,-658.245C604.439,-660.787 656.9,-663.778 702.436,-666.374"/>
<polyline fill="none" stroke="black" points="707.669,-666.673 702.677,-666.388 "/>
</g>
<!-- CommentsController -->
<g id="node5" class="node"><title>CommentsController</title>
<path fill="none" stroke="black" d="M102.325,-155.682C102.325,-155.682 287.96,-155.682 287.96,-155.682 293.96,-155.682 299.96,-161.682 299.96,-167.682 299.96,-167.682 299.96,-292.482 299.96,-292.482 299.96,-298.482 293.96,-304.482 287.96,-304.482 287.96,-304.482 102.325,-304.482 102.325,-304.482 96.3253,-304.482 90.3253,-298.482 90.3253,-292.482 90.3253,-292.482 90.3253,-167.682 90.3253,-167.682 90.3253,-161.682 96.3253,-155.682 102.325,-155.682"/>
<text text-anchor="middle" x="195.143" y="-286.482" font-family="Times,serif" font-size="14.00">CommentsController</text>
<polyline fill="none" stroke="black" points="90.3253,-279.682 299.96,-279.682 "/>
<text text-anchor="start" x="98.3253" y="-261.682" font-family="Times,serif" font-size="14.00">_one_time_conditions_valid_120?</text>
<text text-anchor="start" x="98.3253" y="-244.882" font-family="Times,serif" font-size="14.00">create</text>
<text text-anchor="start" x="98.3253" y="-228.082" font-family="Times,serif" font-size="14.00">new</text>
<text text-anchor="start" x="98.3253" y="-211.282" font-family="Times,serif" font-size="14.00">show_all</text>
<polyline fill="none" stroke="black" points="90.3253,-204.482 299.96,-204.482 "/>
<polyline fill="none" stroke="black" points="90.3253,-180.482 299.96,-180.482 "/>
<text text-anchor="start" x="98.3253" y="-162.482" font-family="Times,serif" font-size="14.00">_layout</text>
</g>
<!-- ApplicationController&#45;&gt;CommentsController -->
<g id="edge3" class="edge"><title>ApplicationController&#45;&gt;CommentsController</title>
<path fill="none" stroke="black" d="M396.127,-552.627C349.799,-478.278 287.4,-378.138 244.484,-309.266"/>
<polyline fill="none" stroke="black" points="241.686,-304.775 244.33,-309.019 "/>
</g>
<!-- HomeController -->
<g id="node7" class="node"><title>HomeController</title>
<path fill="none" stroke="black" d="M19.2467,-1019.89C19.2467,-1019.89 204.882,-1019.89 204.882,-1019.89 210.882,-1019.89 216.882,-1025.89 216.882,-1031.89 216.882,-1031.89 216.882,-1207.09 216.882,-1207.09 216.882,-1213.09 210.882,-1219.09 204.882,-1219.09 204.882,-1219.09 19.2467,-1219.09 19.2467,-1219.09 13.2467,-1219.09 7.24674,-1213.09 7.24674,-1207.09 7.24674,-1207.09 7.24674,-1031.89 7.24674,-1031.89 7.24674,-1025.89 13.2467,-1019.89 19.2467,-1019.89"/>
<text text-anchor="middle" x="112.064" y="-1201.09" font-family="Times,serif" font-size="14.00">HomeController</text>
<polyline fill="none" stroke="black" points="7.24674,-1194.29 216.882,-1194.29 "/>
<text text-anchor="start" x="15.2467" y="-1176.29" font-family="Times,serif" font-size="14.00">_one_time_conditions_valid_124?</text>
<text text-anchor="start" x="15.2467" y="-1159.49" font-family="Times,serif" font-size="14.00">avc_settings</text>
<text text-anchor="start" x="15.2467" y="-1142.69" font-family="Times,serif" font-size="14.00">index</text>
<text text-anchor="start" x="15.2467" y="-1125.89" font-family="Times,serif" font-size="14.00">my_file</text>
<text text-anchor="start" x="15.2467" y="-1109.09" font-family="Times,serif" font-size="14.00">save_snapshoot</text>
<text text-anchor="start" x="15.2467" y="-1092.29" font-family="Times,serif" font-size="14.00">saved_video</text>
<text text-anchor="start" x="15.2467" y="-1075.49" font-family="Times,serif" font-size="14.00">terms_condition</text>
<polyline fill="none" stroke="black" points="7.24674,-1068.69 216.882,-1068.69 "/>
<polyline fill="none" stroke="black" points="7.24674,-1044.69 216.882,-1044.69 "/>
<text text-anchor="start" x="15.2467" y="-1026.69" font-family="Times,serif" font-size="14.00">_layout</text>
</g>
<!-- ApplicationController&#45;&gt;HomeController -->
<g id="edge5" class="edge"><title>ApplicationController&#45;&gt;HomeController</title>
<path fill="none" stroke="black" d="M384.474,-752.074C327.008,-829.581 247.502,-936.815 189.215,-1015.43"/>
<polyline fill="none" stroke="black" points="186.107,-1019.62 189.085,-1015.6 "/>
</g>
<!-- PasswordResetsController -->
<g id="node9" class="node"><title>PasswordResetsController</title>
<path fill="none" stroke="black" d="M734.342,-1051.21C734.342,-1051.21 874.107,-1051.21 874.107,-1051.21 880.107,-1051.21 886.107,-1057.21 886.107,-1063.21 886.107,-1063.21 886.107,-1188.01 886.107,-1188.01 886.107,-1194.01 880.107,-1200.01 874.107,-1200.01 874.107,-1200.01 734.342,-1200.01 734.342,-1200.01 728.342,-1200.01 722.342,-1194.01 722.342,-1188.01 722.342,-1188.01 722.342,-1063.21 722.342,-1063.21 722.342,-1057.21 728.342,-1051.21 734.342,-1051.21"/>
<text text-anchor="middle" x="804.224" y="-1182.01" font-family="Times,serif" font-size="14.00">PasswordResetsController</text>
<polyline fill="none" stroke="black" points="722.342,-1175.21 886.107,-1175.21 "/>
<text text-anchor="start" x="730.342" y="-1157.21" font-family="Times,serif" font-size="14.00">create</text>
<text text-anchor="start" x="730.342" y="-1140.41" font-family="Times,serif" font-size="14.00">edit</text>
<text text-anchor="start" x="730.342" y="-1123.61" font-family="Times,serif" font-size="14.00">new</text>
<text text-anchor="start" x="730.342" y="-1106.81" font-family="Times,serif" font-size="14.00">update</text>
<polyline fill="none" stroke="black" points="722.342,-1100.01 886.107,-1100.01 "/>
<polyline fill="none" stroke="black" points="722.342,-1076.01 886.107,-1076.01 "/>
<text text-anchor="start" x="730.342" y="-1058.01" font-family="Times,serif" font-size="14.00">_layout</text>
</g>
<!-- ApplicationController&#45;&gt;PasswordResetsController -->
<g id="edge7" class="edge"><title>ApplicationController&#45;&gt;PasswordResetsController</title>
<path fill="none" stroke="black" d="M531.265,-752.223C595.425,-839.99 687.566,-966.032 746.66,-1046.87"/>
<polyline fill="none" stroke="black" points="749.799,-1051.16 746.849,-1047.13 "/>
</g>
<!-- SessionsController -->
<g id="node11" class="node"><title>SessionsController</title>
<path fill="none" stroke="black" d="M363.702,-1047.21C363.702,-1047.21 549.337,-1047.21 549.337,-1047.21 555.337,-1047.21 561.337,-1053.21 561.337,-1059.21 561.337,-1059.21 561.337,-1184.01 561.337,-1184.01 561.337,-1190.01 555.337,-1196.01 549.337,-1196.01 549.337,-1196.01 363.702,-1196.01 363.702,-1196.01 357.702,-1196.01 351.702,-1190.01 351.702,-1184.01 351.702,-1184.01 351.702,-1059.21 351.702,-1059.21 351.702,-1053.21 357.702,-1047.21 363.702,-1047.21"/>
<text text-anchor="middle" x="456.52" y="-1178.01" font-family="Times,serif" font-size="14.00">SessionsController</text>
<polyline fill="none" stroke="black" points="351.702,-1171.21 561.337,-1171.21 "/>
<text text-anchor="start" x="359.702" y="-1153.21" font-family="Times,serif" font-size="14.00">_one_time_conditions_valid_141?</text>
<text text-anchor="start" x="359.702" y="-1136.41" font-family="Times,serif" font-size="14.00">create</text>
<text text-anchor="start" x="359.702" y="-1119.61" font-family="Times,serif" font-size="14.00">destroy</text>
<text text-anchor="start" x="359.702" y="-1102.81" font-family="Times,serif" font-size="14.00">new</text>
<polyline fill="none" stroke="black" points="351.702,-1096.01 561.337,-1096.01 "/>
<polyline fill="none" stroke="black" points="351.702,-1072.01 561.337,-1072.01 "/>
<text text-anchor="start" x="359.702" y="-1054.01" font-family="Times,serif" font-size="14.00">_layout</text>
</g>
<!-- ApplicationController&#45;&gt;SessionsController -->
<g id="edge9" class="edge"><title>ApplicationController&#45;&gt;SessionsController</title>
<path fill="none" stroke="black" d="M457.947,-752.239C457.614,-838.59 457.137,-961.827 456.828,-1041.77"/>
<polyline fill="none" stroke="black" points="456.808,-1046.98 456.827,-1041.98 "/>
</g>
<!-- ShowsController -->
<g id="node12" class="node"><title>ShowsController</title>
<path fill="none" stroke="black" d="M12,-469.105C12,-469.105 197.635,-469.105 197.635,-469.105 203.635,-469.105 209.635,-475.105 209.635,-481.105 209.635,-481.105 209.635,-841.105 209.635,-841.105 209.635,-847.105 203.635,-853.105 197.635,-853.105 197.635,-853.105 12,-853.105 12,-853.105 6,-853.105 0,-847.105 0,-841.105 0,-841.105 0,-481.105 0,-481.105 0,-475.105 6,-469.105 12,-469.105"/>
<text text-anchor="middle" x="104.817" y="-835.105" font-family="Times,serif" font-size="14.00">ShowsController</text>
<polyline fill="none" stroke="black" points="0,-828.305 209.635,-828.305 "/>
<text text-anchor="start" x="8" y="-810.305" font-family="Times,serif" font-size="14.00">_one_time_conditions_valid_228?</text>
<text text-anchor="start" x="8" y="-793.505" font-family="Times,serif" font-size="14.00">_one_time_conditions_valid_232?</text>
<text text-anchor="start" x="8" y="-776.705" font-family="Times,serif" font-size="14.00">_one_time_conditions_valid_234?</text>
<text text-anchor="start" x="8" y="-759.905" font-family="Times,serif" font-size="14.00">check_password</text>
<text text-anchor="start" x="8" y="-743.105" font-family="Times,serif" font-size="14.00">create</text>
<text text-anchor="start" x="8" y="-726.305" font-family="Times,serif" font-size="14.00">destroy</text>
<text text-anchor="start" x="8" y="-709.505" font-family="Times,serif" font-size="14.00">edit</text>
<text text-anchor="start" x="8" y="-692.705" font-family="Times,serif" font-size="14.00">friends_list</text>
<text text-anchor="start" x="8" y="-675.905" font-family="Times,serif" font-size="14.00">index</text>
<text text-anchor="start" x="8" y="-659.105" font-family="Times,serif" font-size="14.00">invite_friend</text>
<text text-anchor="start" x="8" y="-642.305" font-family="Times,serif" font-size="14.00">invite_friend_toshow</text>
<text text-anchor="start" x="8" y="-625.505" font-family="Times,serif" font-size="14.00">invite_friend_toshow_after_create</text>
<text text-anchor="start" x="8" y="-608.705" font-family="Times,serif" font-size="14.00">new</text>
<text text-anchor="start" x="8" y="-591.905" font-family="Times,serif" font-size="14.00">play_cameo</text>
<text text-anchor="start" x="8" y="-575.105" font-family="Times,serif" font-size="14.00">show</text>
<text text-anchor="start" x="8" y="-558.305" font-family="Times,serif" font-size="14.00">status_update</text>
<text text-anchor="start" x="8" y="-541.505" font-family="Times,serif" font-size="14.00">update</text>
<text text-anchor="start" x="8" y="-524.705" font-family="Times,serif" font-size="14.00">view_invitation</text>
<polyline fill="none" stroke="black" points="0,-517.905 209.635,-517.905 "/>
<polyline fill="none" stroke="black" points="0,-493.905 209.635,-493.905 "/>
<text text-anchor="start" x="8" y="-475.905" font-family="Times,serif" font-size="14.00">_layout</text>
</g>
<!-- ApplicationController&#45;&gt;ShowsController -->
<g id="edge10" class="edge"><title>ApplicationController&#45;&gt;ShowsController</title>
<path fill="none" stroke="black" d="M356.556,-654.947C312.266,-656.03 260.267,-657.302 215.063,-658.408"/>
<polyline fill="none" stroke="black" points="209.867,-658.535 214.866,-658.413 "/>
</g>
<!-- UsersController -->
<g id="node13" class="node"><title>UsersController</title>
<path fill="none" stroke="black" d="M639.274,-0.5C639.274,-0.5 817.908,-0.5 817.908,-0.5 823.908,-0.5 829.908,-6.5 829.908,-12.5 829.908,-12.5 829.908,-456.5 829.908,-456.5 829.908,-462.5 823.908,-468.5 817.908,-468.5 817.908,-468.5 639.274,-468.5 639.274,-468.5 633.274,-468.5 627.274,-462.5 627.274,-456.5 627.274,-456.5 627.274,-12.5 627.274,-12.5 627.274,-6.5 633.274,-0.5 639.274,-0.5"/>
<text text-anchor="middle" x="728.591" y="-450.5" font-family="Times,serif" font-size="14.00">UsersController</text>
<polyline fill="none" stroke="black" points="627.274,-443.7 829.908,-443.7 "/>
<text text-anchor="start" x="635.274" y="-425.7" font-family="Times,serif" font-size="14.00">_one_time_conditions_valid_18?</text>
<text text-anchor="start" x="635.274" y="-408.9" font-family="Times,serif" font-size="14.00">_one_time_conditions_valid_22?</text>
<text text-anchor="start" x="635.274" y="-392.1" font-family="Times,serif" font-size="14.00">_one_time_conditions_valid_26?</text>
<text text-anchor="start" x="635.274" y="-375.3" font-family="Times,serif" font-size="14.00">accept_friend_request</text>
<text text-anchor="start" x="635.274" y="-358.5" font-family="Times,serif" font-size="14.00">add_facebook_friends</text>
<text text-anchor="start" x="635.274" y="-341.7" font-family="Times,serif" font-size="14.00">add_twitter_friends</text>
<text text-anchor="start" x="635.274" y="-324.9" font-family="Times,serif" font-size="14.00">create</text>
<text text-anchor="start" x="635.274" y="-308.1" font-family="Times,serif" font-size="14.00">dashboard</text>
<text text-anchor="start" x="635.274" y="-291.3" font-family="Times,serif" font-size="14.00">friend_profile</text>
<text text-anchor="start" x="635.274" y="-274.5" font-family="Times,serif" font-size="14.00">friends</text>
<text text-anchor="start" x="635.274" y="-257.7" font-family="Times,serif" font-size="14.00">friends_list</text>
<text text-anchor="start" x="635.274" y="-240.9" font-family="Times,serif" font-size="14.00">getting_started</text>
<text text-anchor="start" x="635.274" y="-224.1" font-family="Times,serif" font-size="14.00">ignore_friend_request</text>
<text text-anchor="start" x="635.274" y="-207.3" font-family="Times,serif" font-size="14.00">index</text>
<text text-anchor="start" x="635.274" y="-190.5" font-family="Times,serif" font-size="14.00">invite_friend_via_email</text>
<text text-anchor="start" x="635.274" y="-173.7" font-family="Times,serif" font-size="14.00">new</text>
<text text-anchor="start" x="635.274" y="-156.9" font-family="Times,serif" font-size="14.00">notification</text>
<text text-anchor="start" x="635.274" y="-140.1" font-family="Times,serif" font-size="14.00">oauth_failure</text>
<text text-anchor="start" x="635.274" y="-123.3" font-family="Times,serif" font-size="14.00">profile</text>
<text text-anchor="start" x="635.274" y="-106.5" font-family="Times,serif" font-size="14.00">send_friend_request</text>
<text text-anchor="start" x="635.274" y="-89.7" font-family="Times,serif" font-size="14.00">show</text>
<text text-anchor="start" x="635.274" y="-72.9" font-family="Times,serif" font-size="14.00">update</text>
<polyline fill="none" stroke="black" points="627.274,-66.1 829.908,-66.1 "/>
<polyline fill="none" stroke="black" points="627.274,-42.1 829.908,-42.1 "/>
<text text-anchor="start" x="635.274" y="-24.1" font-family="Times,serif" font-size="14.00">_layout</text>
<text text-anchor="start" x="635.274" y="-7.3" font-family="Times,serif" font-size="14.00">get_user</text>
</g>
<!-- ApplicationController&#45;&gt;UsersController -->
<g id="edge11" class="edge"><title>ApplicationController&#45;&gt;UsersController</title>
<path fill="none" stroke="black" d="M522.895,-552.611C553.194,-505.754 590.072,-448.722 624.19,-395.957"/>
<polyline fill="none" stroke="black" points="627.061,-391.518 624.346,-395.716 "/>
</g>
<!-- DocumentationsController -->
<g id="node6" class="node"><title>DocumentationsController</title>
<path fill="none" stroke="black" d="M1254.57,-503.658C1254.57,-503.658 1395.88,-503.658 1395.88,-503.658 1401.88,-503.658 1407.88,-509.658 1407.88,-515.658 1407.88,-515.658 1407.88,-707.658 1407.88,-707.658 1407.88,-713.658 1401.88,-719.658 1395.88,-719.658 1395.88,-719.658 1254.57,-719.658 1254.57,-719.658 1248.57,-719.658 1242.57,-713.658 1242.57,-707.658 1242.57,-707.658 1242.57,-515.658 1242.57,-515.658 1242.57,-509.658 1248.57,-503.658 1254.57,-503.658"/>
<text text-anchor="middle" x="1325.23" y="-701.658" font-family="Times,serif" font-size="14.00">DocumentationsController</text>
<polyline fill="none" stroke="black" points="1242.57,-694.858 1407.88,-694.858 "/>
<polyline fill="none" stroke="black" points="1242.57,-670.858 1407.88,-670.858 "/>
<text text-anchor="start" x="1250.57" y="-652.858" font-family="Times,serif" font-size="14.00">collection_path</text>
<text text-anchor="start" x="1250.57" y="-636.058" font-family="Times,serif" font-size="14.00">collection_url</text>
<text text-anchor="start" x="1250.57" y="-619.258" font-family="Times,serif" font-size="14.00">edit_resource_path</text>
<text text-anchor="start" x="1250.57" y="-602.458" font-family="Times,serif" font-size="14.00">edit_resource_url</text>
<text text-anchor="start" x="1250.57" y="-585.658" font-family="Times,serif" font-size="14.00">new_resource_path</text>
<text text-anchor="start" x="1250.57" y="-568.858" font-family="Times,serif" font-size="14.00">new_resource_url</text>
<text text-anchor="start" x="1250.57" y="-552.058" font-family="Times,serif" font-size="14.00">resource_path</text>
<text text-anchor="start" x="1250.57" y="-535.258" font-family="Times,serif" font-size="14.00">resource_url</text>
<polyline fill="none" stroke="black" points="1242.57,-528.458 1407.88,-528.458 "/>
<text text-anchor="start" x="1250.57" y="-510.458" font-family="Times,serif" font-size="14.00">_layout</text>
</g>
<!-- ParametersController -->
<g id="node8" class="node"><title>ParametersController</title>
<path fill="none" stroke="black" d="M1206.57,-78.5C1206.57,-78.5 1318.31,-78.5 1318.31,-78.5 1324.31,-78.5 1330.31,-84.5 1330.31,-90.5 1330.31,-90.5 1330.31,-349.7 1330.31,-349.7 1330.31,-355.7 1324.31,-361.7 1318.31,-361.7 1318.31,-361.7 1206.57,-361.7 1206.57,-361.7 1200.57,-361.7 1194.57,-355.7 1194.57,-349.7 1194.57,-349.7 1194.57,-90.5 1194.57,-90.5 1194.57,-84.5 1200.57,-78.5 1206.57,-78.5"/>
<text text-anchor="middle" x="1262.44" y="-343.7" font-family="Times,serif" font-size="14.00">ParametersController</text>
<polyline fill="none" stroke="black" points="1194.57,-336.9 1330.31,-336.9 "/>
<polyline fill="none" stroke="black" points="1194.57,-312.9 1330.31,-312.9 "/>
<text text-anchor="start" x="1202.57" y="-294.9" font-family="Times,serif" font-size="14.00">collection_path</text>
<text text-anchor="start" x="1202.57" y="-278.1" font-family="Times,serif" font-size="14.00">collection_url</text>
<text text-anchor="start" x="1202.57" y="-261.3" font-family="Times,serif" font-size="14.00">edit_parent_path</text>
<text text-anchor="start" x="1202.57" y="-244.5" font-family="Times,serif" font-size="14.00">edit_parent_url</text>
<text text-anchor="start" x="1202.57" y="-227.7" font-family="Times,serif" font-size="14.00">edit_resource_path</text>
<text text-anchor="start" x="1202.57" y="-210.9" font-family="Times,serif" font-size="14.00">edit_resource_url</text>
<text text-anchor="start" x="1202.57" y="-194.1" font-family="Times,serif" font-size="14.00">new_resource_path</text>
<text text-anchor="start" x="1202.57" y="-177.3" font-family="Times,serif" font-size="14.00">new_resource_url</text>
<text text-anchor="start" x="1202.57" y="-160.5" font-family="Times,serif" font-size="14.00">parent_path</text>
<text text-anchor="start" x="1202.57" y="-143.7" font-family="Times,serif" font-size="14.00">parent_url</text>
<text text-anchor="start" x="1202.57" y="-126.9" font-family="Times,serif" font-size="14.00">resource_path</text>
<text text-anchor="start" x="1202.57" y="-110.1" font-family="Times,serif" font-size="14.00">resource_url</text>
<polyline fill="none" stroke="black" points="1194.57,-103.3 1330.31,-103.3 "/>
<text text-anchor="start" x="1202.57" y="-85.3" font-family="Times,serif" font-size="14.00">_layout</text>
</g>
<!-- ResourcesController -->
<g id="node10" class="node"><title>ResourcesController</title>
<path fill="none" stroke="black" d="M1010.18,-549.853C1010.18,-549.853 1117.27,-549.853 1117.27,-549.853 1123.27,-549.853 1129.27,-555.853 1129.27,-561.853 1129.27,-561.853 1129.27,-821.053 1129.27,-821.053 1129.27,-827.053 1123.27,-833.053 1117.27,-833.053 1117.27,-833.053 1010.18,-833.053 1010.18,-833.053 1004.18,-833.053 998.184,-827.053 998.184,-821.053 998.184,-821.053 998.184,-561.853 998.184,-561.853 998.184,-555.853 1004.18,-549.853 1010.18,-549.853"/>
<text text-anchor="middle" x="1063.73" y="-815.053" font-family="Times,serif" font-size="14.00">ResourcesController</text>
<polyline fill="none" stroke="black" points="998.184,-808.253 1129.27,-808.253 "/>
<polyline fill="none" stroke="black" points="998.184,-784.253 1129.27,-784.253 "/>
<text text-anchor="start" x="1006.18" y="-766.253" font-family="Times,serif" font-size="14.00">collection_path</text>
<text text-anchor="start" x="1006.18" y="-749.453" font-family="Times,serif" font-size="14.00">collection_url</text>
<text text-anchor="start" x="1006.18" y="-732.653" font-family="Times,serif" font-size="14.00">edit_parent_path</text>
<text text-anchor="start" x="1006.18" y="-715.853" font-family="Times,serif" font-size="14.00">edit_parent_url</text>
<text text-anchor="start" x="1006.18" y="-699.053" font-family="Times,serif" font-size="14.00">edit_resource_path</text>
<text text-anchor="start" x="1006.18" y="-682.253" font-family="Times,serif" font-size="14.00">edit_resource_url</text>
<text text-anchor="start" x="1006.18" y="-665.453" font-family="Times,serif" font-size="14.00">new_resource_path</text>
<text text-anchor="start" x="1006.18" y="-648.653" font-family="Times,serif" font-size="14.00">new_resource_url</text>
<text text-anchor="start" x="1006.18" y="-631.853" font-family="Times,serif" font-size="14.00">parent_path</text>
<text text-anchor="start" x="1006.18" y="-615.053" font-family="Times,serif" font-size="14.00">parent_url</text>
<text text-anchor="start" x="1006.18" y="-598.253" font-family="Times,serif" font-size="14.00">resource_path</text>
<text text-anchor="start" x="1006.18" y="-581.453" font-family="Times,serif" font-size="14.00">resource_url</text>
<polyline fill="none" stroke="black" points="998.184,-574.653 1129.27,-574.653 "/>
<text text-anchor="start" x="1006.18" y="-556.653" font-family="Times,serif" font-size="14.00">_layout</text>
</g>
<!-- InheritedResources::Base -->
<g id="node14" class="node"><title>InheritedResources::Base</title>
<ellipse fill="none" stroke="black" cx="1146.76" cy="-458.107" rx="109.937" ry="18"/>
<text text-anchor="middle" x="1146.76" y="-452.507" font-family="Times,serif" font-size="14.00">InheritedResources::Base</text>
</g>
<!-- InheritedResources::Base&#45;&gt;ApisController -->
<g id="edge1" class="edge"><title>InheritedResources::Base&#45;&gt;ApisController</title>
<path fill="none" stroke="black" d="M1131.44,-439.951C1115.43,-420.972 1089.21,-389.887 1064.26,-360.312"/>
<polyline fill="none" stroke="black" points="1060.91,-356.339 1064.13,-360.16 "/>
</g>
<!-- InheritedResources::Base&#45;&gt;DocumentationsController -->
<g id="edge4" class="edge"><title>InheritedResources::Base&#45;&gt;DocumentationsController</title>
<path fill="none" stroke="black" d="M1167.58,-476.022C1185.28,-491.253 1211.96,-514.209 1238.37,-536.926"/>
<polyline fill="none" stroke="black" points="1242.26,-540.275 1238.47,-537.014 "/>
</g>
<!-- InheritedResources::Base&#45;&gt;ParametersController -->
<g id="edge6" class="edge"><title>InheritedResources::Base&#45;&gt;ParametersController</title>
<path fill="none" stroke="black" d="M1155.64,-439.826C1164.06,-422.52 1177.54,-394.773 1192.14,-364.739"/>
<polyline fill="none" stroke="black" points="1194.49,-359.9 1192.3,-364.397 "/>
</g>
<!-- InheritedResources::Base&#45;&gt;ResourcesController -->
<g id="edge8" class="edge"><title>InheritedResources::Base&#45;&gt;ResourcesController</title>
<path fill="none" stroke="black" d="M1140.24,-476.418C1134.52,-492.516 1125.59,-517.607 1115.82,-545.05"/>
<polyline fill="none" stroke="black" points="1114.12,-549.835 1115.8,-545.124 "/>
</g>
</g>
</svg>
