<?xml version="1.0" encoding="UTF-8" standalone="no"?>
<!DOCTYPE svg PUBLIC "-//W3C//DTD SVG 1.1//EN"
 "http://www.w3.org/Graphics/SVG/1.1/DTD/svg11.dtd">
<!-- Generated by graphviz version 2.34.0 (20131108.0607)
 -->
<!-- Title: models_diagram Pages: 1 -->
<svg width="1614pt" height="1466pt"
 viewBox="0.00 0.00 1614.49 1466.00" xmlns="http://www.w3.org/2000/svg" xmlns:xlink="http://www.w3.org/1999/xlink">
<g id="graph0" class="graph" transform="scale(1 1) rotate(0) translate(4 1462)">
<title>models_diagram</title>
<polygon fill="white" stroke="white" points="-4,4 -4,-1462 1610.49,-1462 1610.49,4 -4,4"/>
<!-- _diagram_info -->
<g id="node1" class="node"><title>_diagram_info</title>
<text text-anchor="start" x="200.802" y="-1441" font-family="Times,serif" font-size="13.00">Models diagram</text>
<text text-anchor="start" x="200.802" y="-1425.4" font-family="Times,serif" font-size="13.00">Date: Nov 08 2013 &#45; 12:31</text>
<text text-anchor="start" x="200.802" y="-1409.8" font-family="Times,serif" font-size="13.00">Migration version: 20130806072023</text>
<text text-anchor="start" x="200.802" y="-1394.2" font-family="Times,serif" font-size="13.00">Generated by RailRoady 1.1.1</text>
<text text-anchor="start" x="200.802" y="-1378.6" font-family="Times,serif" font-size="13.00">http://railroady.prestonlee.com</text>
</g>
<!-- Api -->
<g id="node2" class="node"><title>Api</title>
<path fill="none" stroke="black" d="M22.8157,-703.2C22.8157,-703.2 162.164,-703.2 162.164,-703.2 168.164,-703.2 174.164,-709.2 174.164,-715.2 174.164,-715.2 174.164,-824.8 174.164,-824.8 174.164,-830.8 168.164,-836.8 162.164,-836.8 162.164,-836.8 22.8157,-836.8 22.8157,-836.8 16.8157,-836.8 10.8157,-830.8 10.8157,-824.8 10.8157,-824.8 10.8157,-715.2 10.8157,-715.2 10.8157,-709.2 16.8157,-703.2 22.8157,-703.2"/>
<text text-anchor="middle" x="92.49" y="-818.8" font-family="Times,serif" font-size="14.00">Api</text>
<polyline fill="none" stroke="black" points="10.8157,-812 174.164,-812 "/>
<text text-anchor="start" x="18.8157" y="-794" font-family="Times,serif" font-size="14.00">id :integer</text>
<text text-anchor="start" x="18.8157" y="-777.2" font-family="Times,serif" font-size="14.00">name :string</text>
<text text-anchor="start" x="18.8157" y="-760.4" font-family="Times,serif" font-size="14.00">description :string</text>
<text text-anchor="start" x="18.8157" y="-743.6" font-family="Times,serif" font-size="14.00">documentation_id :integer</text>
<text text-anchor="start" x="18.8157" y="-726.8" font-family="Times,serif" font-size="14.00">created_at :datetime</text>
<text text-anchor="start" x="18.8157" y="-710" font-family="Times,serif" font-size="14.00">updated_at :datetime</text>
</g>
<!-- Resource -->
<g id="node12" class="node"><title>Resource</title>
<path fill="none" stroke="black" d="M34.4778,-280C34.4778,-280 150.502,-280 150.502,-280 156.502,-280 162.502,-286 162.502,-292 162.502,-292 162.502,-452 162.502,-452 162.502,-458 156.502,-464 150.502,-464 150.502,-464 34.4778,-464 34.4778,-464 28.4778,-464 22.4778,-458 22.4778,-452 22.4778,-452 22.4778,-292 22.4778,-292 22.4778,-286 28.4778,-280 34.4778,-280"/>
<text text-anchor="middle" x="92.49" y="-446" font-family="Times,serif" font-size="14.00">Resource</text>
<polyline fill="none" stroke="black" points="22.4778,-439.2 162.502,-439.2 "/>
<text text-anchor="start" x="30.4778" y="-421.2" font-family="Times,serif" font-size="14.00">id :integer</text>
<text text-anchor="start" x="30.4778" y="-404.4" font-family="Times,serif" font-size="14.00">name :string</text>
<text text-anchor="start" x="30.4778" y="-387.6" font-family="Times,serif" font-size="14.00">description :string</text>
<text text-anchor="start" x="30.4778" y="-370.8" font-family="Times,serif" font-size="14.00">created_at :datetime</text>
<text text-anchor="start" x="30.4778" y="-354" font-family="Times,serif" font-size="14.00">updated_at :datetime</text>
<text text-anchor="start" x="30.4778" y="-337.2" font-family="Times,serif" font-size="14.00">api_id :integer</text>
<text text-anchor="start" x="30.4778" y="-320.4" font-family="Times,serif" font-size="14.00">http_method :string</text>
<text text-anchor="start" x="30.4778" y="-303.6" font-family="Times,serif" font-size="14.00">sample_response :text</text>
<text text-anchor="start" x="30.4778" y="-286.8" font-family="Times,serif" font-size="14.00">url :text</text>
</g>
<!-- Api&#45;&gt;Resource -->
<g id="edge1" class="edge"><title>Api&#45;&gt;Resource</title>
<path fill="none" stroke="#66460f" d="M92.49,-694.953C92.49,-632.698 92.49,-543.094 92.49,-474.215"/>
<ellipse fill="none" stroke="#66460f" cx="92.4901" cy="-699.164" rx="4" ry="4"/>
<polygon fill="#66460f" stroke="#66460f" points="92.4901,-474.209 96.99,-464.209 92.4901,-469.209 92.49,-464.209 92.49,-464.209 92.49,-464.209 92.4901,-469.209 87.99,-464.209 92.4901,-474.209 92.4901,-474.209"/>
</g>
<!-- Authentication -->
<g id="node3" class="node"><title>Authentication</title>
<path fill="none" stroke="black" d="M284.878,-678C284.878,-678 428.102,-678 428.102,-678 434.102,-678 440.102,-684 440.102,-690 440.102,-690 440.102,-850 440.102,-850 440.102,-856 434.102,-862 428.102,-862 428.102,-862 284.878,-862 284.878,-862 278.878,-862 272.878,-856 272.878,-850 272.878,-850 272.878,-690 272.878,-690 272.878,-684 278.878,-678 284.878,-678"/>
<text text-anchor="middle" x="356.49" y="-844" font-family="Times,serif" font-size="14.00">Authentication</text>
<polyline fill="none" stroke="black" points="272.878,-837.2 440.102,-837.2 "/>
<text text-anchor="start" x="280.878" y="-819.2" font-family="Times,serif" font-size="14.00">id :integer</text>
<text text-anchor="start" x="280.878" y="-802.4" font-family="Times,serif" font-size="14.00">user_id :integer</text>
<text text-anchor="start" x="280.878" y="-785.6" font-family="Times,serif" font-size="14.00">uid :string</text>
<text text-anchor="start" x="280.878" y="-768.8" font-family="Times,serif" font-size="14.00">provider :string</text>
<text text-anchor="start" x="280.878" y="-752" font-family="Times,serif" font-size="14.00">oauth_token :string</text>
<text text-anchor="start" x="280.878" y="-735.2" font-family="Times,serif" font-size="14.00">ouath_token_secret :string</text>
<text text-anchor="start" x="280.878" y="-718.4" font-family="Times,serif" font-size="14.00">oauth_expires_at :datetime</text>
<text text-anchor="start" x="280.878" y="-701.6" font-family="Times,serif" font-size="14.00">created_at :datetime</text>
<text text-anchor="start" x="280.878" y="-684.8" font-family="Times,serif" font-size="14.00">updated_at :datetime</text>
</g>
<!-- Cameo -->
<g id="node4" class="node"><title>Cameo</title>
<path fill="none" stroke="black" d="M325.185,-204.4C325.185,-204.4 449.795,-204.4 449.795,-204.4 455.795,-204.4 461.795,-210.4 461.795,-216.4 461.795,-216.4 461.795,-527.6 461.795,-527.6 461.795,-533.6 455.795,-539.6 449.795,-539.6 449.795,-539.6 325.185,-539.6 325.185,-539.6 319.185,-539.6 313.185,-533.6 313.185,-527.6 313.185,-527.6 313.185,-216.4 313.185,-216.4 313.185,-210.4 319.185,-204.4 325.185,-204.4"/>
<text text-anchor="middle" x="387.49" y="-521.6" font-family="Times,serif" font-size="14.00">Cameo</text>
<polyline fill="none" stroke="black" points="313.185,-514.8 461.795,-514.8 "/>
<text text-anchor="start" x="321.185" y="-496.8" font-family="Times,serif" font-size="14.00">id :integer</text>
<text text-anchor="start" x="321.185" y="-480" font-family="Times,serif" font-size="14.00">user_id :integer</text>
<text text-anchor="start" x="321.185" y="-463.2" font-family="Times,serif" font-size="14.00">director_id :integer</text>
<text text-anchor="start" x="321.185" y="-446.4" font-family="Times,serif" font-size="14.00">show_id :integer</text>
<text text-anchor="start" x="321.185" y="-429.6" font-family="Times,serif" font-size="14.00">show_order :integer</text>
<text text-anchor="start" x="321.185" y="-412.8" font-family="Times,serif" font-size="14.00">status :string</text>
<text text-anchor="start" x="321.185" y="-396" font-family="Times,serif" font-size="14.00">name :string</text>
<text text-anchor="start" x="321.185" y="-379.2" font-family="Times,serif" font-size="14.00">description :string</text>
<text text-anchor="start" x="321.185" y="-362.4" font-family="Times,serif" font-size="14.00">thumbnail_url :string</text>
<text text-anchor="start" x="321.185" y="-345.6" font-family="Times,serif" font-size="14.00">download_url :string</text>
<text text-anchor="start" x="321.185" y="-328.8" font-family="Times,serif" font-size="14.00">kaltura_entry_id :string</text>
<text text-anchor="start" x="321.185" y="-312" font-family="Times,serif" font-size="14.00">created_at :datetime</text>
<text text-anchor="start" x="321.185" y="-295.2" font-family="Times,serif" font-size="14.00">updated_at :datetime</text>
<text text-anchor="start" x="321.185" y="-278.4" font-family="Times,serif" font-size="14.00">title :string</text>
<text text-anchor="start" x="321.185" y="-261.6" font-family="Times,serif" font-size="14.00">start_time :string</text>
<text text-anchor="start" x="321.185" y="-244.8" font-family="Times,serif" font-size="14.00">end_time :string</text>
<text text-anchor="start" x="321.185" y="-228" font-family="Times,serif" font-size="14.00">duration :float</text>
<text text-anchor="start" x="321.185" y="-211.2" font-family="Times,serif" font-size="14.00">published_status :string</text>
</g>
<!-- Comment -->
<g id="node5" class="node"><title>Comment</title>
<path fill="none" stroke="black" d="M491.985,-296.8C491.985,-296.8 600.995,-296.8 600.995,-296.8 606.995,-296.8 612.995,-302.8 612.995,-308.8 612.995,-308.8 612.995,-435.2 612.995,-435.2 612.995,-441.2 606.995,-447.2 600.995,-447.2 600.995,-447.2 491.985,-447.2 491.985,-447.2 485.985,-447.2 479.985,-441.2 479.985,-435.2 479.985,-435.2 479.985,-308.8 479.985,-308.8 479.985,-302.8 485.985,-296.8 491.985,-296.8"/>
<text text-anchor="middle" x="546.49" y="-429.2" font-family="Times,serif" font-size="14.00">Comment</text>
<polyline fill="none" stroke="black" points="479.985,-422.4 612.995,-422.4 "/>
<text text-anchor="start" x="487.985" y="-404.4" font-family="Times,serif" font-size="14.00">id :integer</text>
<text text-anchor="start" x="487.985" y="-387.6" font-family="Times,serif" font-size="14.00">body :text</text>
<text text-anchor="start" x="487.985" y="-370.8" font-family="Times,serif" font-size="14.00">user_id :integer</text>
<text text-anchor="start" x="487.985" y="-354" font-family="Times,serif" font-size="14.00">user_name :string</text>
<text text-anchor="start" x="487.985" y="-337.2" font-family="Times,serif" font-size="14.00">show_id :integer</text>
<text text-anchor="start" x="487.985" y="-320.4" font-family="Times,serif" font-size="14.00">created_at :datetime</text>
<text text-anchor="start" x="487.985" y="-303.6" font-family="Times,serif" font-size="14.00">updated_at :datetime</text>
</g>
<!-- Documentation -->
<g id="node6" class="node"><title>Documentation</title>
<path fill="none" stroke="black" d="M56.9847,-1109.6C56.9847,-1109.6 165.995,-1109.6 165.995,-1109.6 171.995,-1109.6 177.995,-1115.6 177.995,-1121.6 177.995,-1121.6 177.995,-1214.4 177.995,-1214.4 177.995,-1220.4 171.995,-1226.4 165.995,-1226.4 165.995,-1226.4 56.9847,-1226.4 56.9847,-1226.4 50.9847,-1226.4 44.9847,-1220.4 44.9847,-1214.4 44.9847,-1214.4 44.9847,-1121.6 44.9847,-1121.6 44.9847,-1115.6 50.9847,-1109.6 56.9847,-1109.6"/>
<text text-anchor="middle" x="111.49" y="-1208.4" font-family="Times,serif" font-size="14.00">Documentation</text>
<polyline fill="none" stroke="black" points="44.9847,-1201.6 177.995,-1201.6 "/>
<text text-anchor="start" x="52.9847" y="-1183.6" font-family="Times,serif" font-size="14.00">id :integer</text>
<text text-anchor="start" x="52.9847" y="-1166.8" font-family="Times,serif" font-size="14.00">name :string</text>
<text text-anchor="start" x="52.9847" y="-1150" font-family="Times,serif" font-size="14.00">description :string</text>
<text text-anchor="start" x="52.9847" y="-1133.2" font-family="Times,serif" font-size="14.00">created_at :datetime</text>
<text text-anchor="start" x="52.9847" y="-1116.4" font-family="Times,serif" font-size="14.00">updated_at :datetime</text>
</g>
<!-- Documentation&#45;&gt;Api -->
<g id="edge6" class="edge"><title>Documentation&#45;&gt;Api</title>
<path fill="none" stroke="#865620" d="M108.331,-1101.15C104.973,-1031.17 99.6716,-920.68 96.1386,-847.044"/>
<ellipse fill="none" stroke="#865620" cx="108.536" cy="-1105.42" rx="4" ry="4"/>
<polygon fill="#865620" stroke="#865620" points="96.1315,-846.895 100.147,-836.691 95.8919,-841.901 95.6522,-836.906 95.6522,-836.906 95.6522,-836.906 95.8919,-841.901 91.1574,-837.122 96.1315,-846.895 96.1315,-846.895"/>
</g>
<!-- FriendMapping -->
<g id="node7" class="node"><title>FriendMapping</title>
<path fill="none" stroke="black" d="M926.04,-1084.4C926.04,-1084.4 1038.94,-1084.4 1038.94,-1084.4 1044.94,-1084.4 1050.94,-1090.4 1050.94,-1096.4 1050.94,-1096.4 1050.94,-1239.6 1050.94,-1239.6 1050.94,-1245.6 1044.94,-1251.6 1038.94,-1251.6 1038.94,-1251.6 926.04,-1251.6 926.04,-1251.6 920.04,-1251.6 914.04,-1245.6 914.04,-1239.6 914.04,-1239.6 914.04,-1096.4 914.04,-1096.4 914.04,-1090.4 920.04,-1084.4 926.04,-1084.4"/>
<text text-anchor="middle" x="982.49" y="-1233.6" font-family="Times,serif" font-size="14.00">FriendMapping</text>
<polyline fill="none" stroke="black" points="914.04,-1226.8 1050.94,-1226.8 "/>
<text text-anchor="start" x="922.04" y="-1208.8" font-family="Times,serif" font-size="14.00">id :integer</text>
<text text-anchor="start" x="922.04" y="-1192" font-family="Times,serif" font-size="14.00">user_id :integer</text>
<text text-anchor="start" x="922.04" y="-1175.2" font-family="Times,serif" font-size="14.00">friend_id :integer</text>
<text text-anchor="start" x="922.04" y="-1158.4" font-family="Times,serif" font-size="14.00">request_from :integer</text>
<text text-anchor="start" x="922.04" y="-1141.6" font-family="Times,serif" font-size="14.00">status :string</text>
<text text-anchor="start" x="922.04" y="-1124.8" font-family="Times,serif" font-size="14.00">friend_email :string</text>
<text text-anchor="start" x="922.04" y="-1108" font-family="Times,serif" font-size="14.00">created_at :datetime</text>
<text text-anchor="start" x="922.04" y="-1091.2" font-family="Times,serif" font-size="14.00">updated_at :datetime</text>
</g>
<!-- InviteFriend -->
<g id="node8" class="node"><title>InviteFriend</title>
<path fill="none" stroke="black" d="M651.699,-288.4C651.699,-288.4 783.282,-288.4 783.282,-288.4 789.282,-288.4 795.282,-294.4 795.282,-300.4 795.282,-300.4 795.282,-443.6 795.282,-443.6 795.282,-449.6 789.282,-455.6 783.282,-455.6 783.282,-455.6 651.699,-455.6 651.699,-455.6 645.699,-455.6 639.699,-449.6 639.699,-443.6 639.699,-443.6 639.699,-300.4 639.699,-300.4 639.699,-294.4 645.699,-288.4 651.699,-288.4"/>
<text text-anchor="middle" x="717.49" y="-437.6" font-family="Times,serif" font-size="14.00">InviteFriend</text>
<polyline fill="none" stroke="black" points="639.699,-430.8 795.282,-430.8 "/>
<text text-anchor="start" x="647.699" y="-412.8" font-family="Times,serif" font-size="14.00">id :integer</text>
<text text-anchor="start" x="647.699" y="-396" font-family="Times,serif" font-size="14.00">director_id :integer</text>
<text text-anchor="start" x="647.699" y="-379.2" font-family="Times,serif" font-size="14.00">show_id :integer</text>
<text text-anchor="start" x="647.699" y="-362.4" font-family="Times,serif" font-size="14.00">contributor_id :integer</text>
<text text-anchor="start" x="647.699" y="-345.6" font-family="Times,serif" font-size="14.00">status :string</text>
<text text-anchor="start" x="647.699" y="-328.8" font-family="Times,serif" font-size="14.00">created_at :datetime</text>
<text text-anchor="start" x="647.699" y="-312" font-family="Times,serif" font-size="14.00">updated_at :datetime</text>
<text text-anchor="start" x="647.699" y="-295.2" font-family="Times,serif" font-size="14.00">contributor_email :string</text>
</g>
<!-- Notification -->
<g id="node9" class="node"><title>Notification</title>
<path fill="none" stroke="black" d="M828.985,-271.6C828.985,-271.6 937.995,-271.6 937.995,-271.6 943.995,-271.6 949.995,-277.6 949.995,-283.6 949.995,-283.6 949.995,-460.4 949.995,-460.4 949.995,-466.4 943.995,-472.4 937.995,-472.4 937.995,-472.4 828.985,-472.4 828.985,-472.4 822.985,-472.4 816.985,-466.4 816.985,-460.4 816.985,-460.4 816.985,-283.6 816.985,-283.6 816.985,-277.6 822.985,-271.6 828.985,-271.6"/>
<text text-anchor="middle" x="883.49" y="-454.4" font-family="Times,serif" font-size="14.00">Notification</text>
<polyline fill="none" stroke="black" points="816.985,-447.6 949.995,-447.6 "/>
<text text-anchor="start" x="824.985" y="-429.6" font-family="Times,serif" font-size="14.00">id :integer</text>
<text text-anchor="start" x="824.985" y="-412.8" font-family="Times,serif" font-size="14.00">from_id :integer</text>
<text text-anchor="start" x="824.985" y="-396" font-family="Times,serif" font-size="14.00">to_id :integer</text>
<text text-anchor="start" x="824.985" y="-379.2" font-family="Times,serif" font-size="14.00">show_id :integer</text>
<text text-anchor="start" x="824.985" y="-362.4" font-family="Times,serif" font-size="14.00">content :text</text>
<text text-anchor="start" x="824.985" y="-345.6" font-family="Times,serif" font-size="14.00">status :string</text>
<text text-anchor="start" x="824.985" y="-328.8" font-family="Times,serif" font-size="14.00">to_email :string</text>
<text text-anchor="start" x="824.985" y="-312" font-family="Times,serif" font-size="14.00">read_status :boolean</text>
<text text-anchor="start" x="824.985" y="-295.2" font-family="Times,serif" font-size="14.00">created_at :datetime</text>
<text text-anchor="start" x="824.985" y="-278.4" font-family="Times,serif" font-size="14.00">updated_at :datetime</text>
</g>
<!-- Parameter -->
<g id="node10" class="node"><title>Parameter</title>
<path fill="none" stroke="black" d="M94.2054,-0.4C94.2054,-0.4 204.775,-0.4 204.775,-0.4 210.775,-0.4 216.775,-6.4 216.775,-12.4 216.775,-12.4 216.775,-155.6 216.775,-155.6 216.775,-161.6 210.775,-167.6 204.775,-167.6 204.775,-167.6 94.2054,-167.6 94.2054,-167.6 88.2054,-167.6 82.2054,-161.6 82.2054,-155.6 82.2054,-155.6 82.2054,-12.4 82.2054,-12.4 82.2054,-6.4 88.2054,-0.4 94.2054,-0.4"/>
<text text-anchor="middle" x="149.49" y="-149.6" font-family="Times,serif" font-size="14.00">Parameter</text>
<polyline fill="none" stroke="black" points="82.2054,-142.8 216.775,-142.8 "/>
<text text-anchor="start" x="90.2054" y="-124.8" font-family="Times,serif" font-size="14.00">id :integer</text>
<text text-anchor="start" x="90.2054" y="-108" font-family="Times,serif" font-size="14.00">name :string</text>
<text text-anchor="start" x="90.2054" y="-91.2" font-family="Times,serif" font-size="14.00">description :string</text>
<text text-anchor="start" x="90.2054" y="-74.4" font-family="Times,serif" font-size="14.00">resource_id :integer</text>
<text text-anchor="start" x="90.2054" y="-57.6" font-family="Times,serif" font-size="14.00">created_at :datetime</text>
<text text-anchor="start" x="90.2054" y="-40.8" font-family="Times,serif" font-size="14.00">updated_at :datetime</text>
<text text-anchor="start" x="90.2054" y="-24" font-family="Times,serif" font-size="14.00">required :string</text>
<text text-anchor="start" x="90.2054" y="-7.2" font-family="Times,serif" font-size="14.00">example_values :text</text>
</g>
<!-- ProfileVideo -->
<g id="node11" class="node"><title>ProfileVideo</title>
<path fill="none" stroke="black" d="M1080.59,-1092.8C1080.59,-1092.8 1204.39,-1092.8 1204.39,-1092.8 1210.39,-1092.8 1216.39,-1098.8 1216.39,-1104.8 1216.39,-1104.8 1216.39,-1231.2 1216.39,-1231.2 1216.39,-1237.2 1210.39,-1243.2 1204.39,-1243.2 1204.39,-1243.2 1080.59,-1243.2 1080.59,-1243.2 1074.59,-1243.2 1068.59,-1237.2 1068.59,-1231.2 1068.59,-1231.2 1068.59,-1104.8 1068.59,-1104.8 1068.59,-1098.8 1074.59,-1092.8 1080.59,-1092.8"/>
<text text-anchor="middle" x="1142.49" y="-1225.2" font-family="Times,serif" font-size="14.00">ProfileVideo</text>
<polyline fill="none" stroke="black" points="1068.59,-1218.4 1216.39,-1218.4 "/>
<text text-anchor="start" x="1076.59" y="-1200.4" font-family="Times,serif" font-size="14.00">id :integer</text>
<text text-anchor="start" x="1076.59" y="-1183.6" font-family="Times,serif" font-size="14.00">user_id :integer</text>
<text text-anchor="start" x="1076.59" y="-1166.8" font-family="Times,serif" font-size="14.00">thumbnail_url :string</text>
<text text-anchor="start" x="1076.59" y="-1150" font-family="Times,serif" font-size="14.00">download_url :string</text>
<text text-anchor="start" x="1076.59" y="-1133.2" font-family="Times,serif" font-size="14.00">kaltura_entry_id :string</text>
<text text-anchor="start" x="1076.59" y="-1116.4" font-family="Times,serif" font-size="14.00">created_at :datetime</text>
<text text-anchor="start" x="1076.59" y="-1099.6" font-family="Times,serif" font-size="14.00">updated_at :datetime</text>
</g>
<!-- Resource&#45;&gt;Parameter -->
<g id="edge13" class="edge"><title>Resource&#45;&gt;Parameter</title>
<path fill="none" stroke="#c9ecea" d="M112.294,-271.635C118.37,-241.148 125.029,-207.736 131.012,-177.712"/>
<ellipse fill="none" stroke="#c9ecea" cx="111.464" cy="-275.799" rx="4.00001" ry="4.00001"/>
<polygon fill="#c9ecea" stroke="#c9ecea" points="131.059,-177.476 137.427,-168.549 132.037,-172.573 133.014,-167.669 133.014,-167.669 133.014,-167.669 132.037,-172.573 128.601,-166.789 131.059,-177.476 131.059,-177.476"/>
</g>
<!-- Session -->
<g id="node13" class="node"><title>Session</title>
<path fill="none" stroke="black" d="M1245.98,-1109.6C1245.98,-1109.6 1355,-1109.6 1355,-1109.6 1361,-1109.6 1367,-1115.6 1367,-1121.6 1367,-1121.6 1367,-1214.4 1367,-1214.4 1367,-1220.4 1361,-1226.4 1355,-1226.4 1355,-1226.4 1245.98,-1226.4 1245.98,-1226.4 1239.98,-1226.4 1233.98,-1220.4 1233.98,-1214.4 1233.98,-1214.4 1233.98,-1121.6 1233.98,-1121.6 1233.98,-1115.6 1239.98,-1109.6 1245.98,-1109.6"/>
<text text-anchor="middle" x="1300.49" y="-1208.4" font-family="Times,serif" font-size="14.00">Session</text>
<polyline fill="none" stroke="black" points="1233.98,-1201.6 1367,-1201.6 "/>
<text text-anchor="start" x="1241.98" y="-1183.6" font-family="Times,serif" font-size="14.00">id :integer</text>
<text text-anchor="start" x="1241.98" y="-1166.8" font-family="Times,serif" font-size="14.00">session_id :string</text>
<text text-anchor="start" x="1241.98" y="-1150" font-family="Times,serif" font-size="14.00">data :text</text>
<text text-anchor="start" x="1241.98" y="-1133.2" font-family="Times,serif" font-size="14.00">created_at :datetime</text>
<text text-anchor="start" x="1241.98" y="-1116.4" font-family="Times,serif" font-size="14.00">updated_at :datetime</text>
</g>
<!-- Show -->
<g id="node14" class="node"><title>Show</title>
<path fill="none" stroke="black" d="M584.054,-577.2C584.054,-577.2 808.927,-577.2 808.927,-577.2 814.927,-577.2 820.927,-583.2 820.927,-589.2 820.927,-589.2 820.927,-950.8 820.927,-950.8 820.927,-956.8 814.927,-962.8 808.927,-962.8 808.927,-962.8 584.054,-962.8 584.054,-962.8 578.054,-962.8 572.054,-956.8 572.054,-950.8 572.054,-950.8 572.054,-589.2 572.054,-589.2 572.054,-583.2 578.054,-577.2 584.054,-577.2"/>
<text text-anchor="middle" x="696.49" y="-944.8" font-family="Times,serif" font-size="14.00">Show</text>
<polyline fill="none" stroke="black" points="572.054,-938 820.927,-938 "/>
<text text-anchor="start" x="580.054" y="-920" font-family="Times,serif" font-size="14.00">id :integer</text>
<text text-anchor="start" x="580.054" y="-903.2" font-family="Times,serif" font-size="14.00">user_id :integer</text>
<text text-anchor="start" x="580.054" y="-886.4" font-family="Times,serif" font-size="14.00">title :string</text>
<text text-anchor="start" x="580.054" y="-869.6" font-family="Times,serif" font-size="14.00">show_tag :string</text>
<text text-anchor="start" x="580.054" y="-852.8" font-family="Times,serif" font-size="14.00">description :text</text>
<text text-anchor="start" x="580.054" y="-836" font-family="Times,serif" font-size="14.00">display_preferences :string</text>
<text text-anchor="start" x="580.054" y="-819.2" font-family="Times,serif" font-size="14.00">display_preferences_password :string</text>
<text text-anchor="start" x="580.054" y="-802.4" font-family="Times,serif" font-size="14.00">contributor_preferences :string</text>
<text text-anchor="start" x="580.054" y="-785.6" font-family="Times,serif" font-size="14.00">contributor_preferences_password :string</text>
<text text-anchor="start" x="580.054" y="-768.8" font-family="Times,serif" font-size="14.00">need_review :boolean</text>
<text text-anchor="start" x="580.054" y="-752" font-family="Times,serif" font-size="14.00">number_of_views :integer</text>
<text text-anchor="start" x="580.054" y="-735.2" font-family="Times,serif" font-size="14.00">created_at :datetime</text>
<text text-anchor="start" x="580.054" y="-718.4" font-family="Times,serif" font-size="14.00">updated_at :datetime</text>
<text text-anchor="start" x="580.054" y="-701.6" font-family="Times,serif" font-size="14.00">end_set :datetime</text>
<text text-anchor="start" x="580.054" y="-684.8" font-family="Times,serif" font-size="14.00">kaltura_playlist_id :string</text>
<text text-anchor="start" x="580.054" y="-668" font-family="Times,serif" font-size="14.00">duration :float</text>
<text text-anchor="start" x="580.054" y="-651.2" font-family="Times,serif" font-size="14.00">permalink :string</text>
<text text-anchor="start" x="580.054" y="-634.4" font-family="Times,serif" font-size="14.00">enable_download :boolean</text>
<text text-anchor="start" x="580.054" y="-617.6" font-family="Times,serif" font-size="14.00">download_preference :integer</text>
<text text-anchor="start" x="580.054" y="-600.8" font-family="Times,serif" font-size="14.00">download_url :string</text>
<text text-anchor="start" x="580.054" y="-584" font-family="Times,serif" font-size="14.00">cameo_duration :float</text>
</g>
<!-- Show&#45;&gt;Cameo -->
<g id="edge16" class="edge"><title>Show&#45;&gt;Cameo</title>
<path fill="none" stroke="#ec875d" d="M565.989,-651.072C532.514,-617.151 498.18,-578.784 470.49,-540 469.488,-538.596 468.491,-537.178 467.5,-535.748"/>
<ellipse fill="none" stroke="#ec875d" cx="568.97" cy="-654.075" rx="4.00002" ry="4.00002"/>
<polygon fill="#ec875d" stroke="#ec875d" points="467.48,-535.717 465.626,-524.91 464.687,-531.571 461.893,-527.424 461.893,-527.424 461.893,-527.424 464.687,-531.571 458.161,-529.938 467.48,-535.717 467.48,-535.717"/>
</g>
<!-- Show&#45;&gt;Comment -->
<g id="edge17" class="edge"><title>Show&#45;&gt;Comment</title>
<path fill="none" stroke="#c0edd6" d="M620.928,-569.515C605.88,-529.789 590.862,-490.143 578.298,-456.973"/>
<ellipse fill="none" stroke="#c0edd6" cx="622.38" cy="-573.349" rx="4.00001" ry="4.00001"/>
<polygon fill="#c0edd6" stroke="#c0edd6" points="578.194,-456.697 578.859,-445.752 576.422,-452.021 574.651,-447.346 574.651,-447.346 574.651,-447.346 576.422,-452.021 570.443,-448.94 578.194,-456.697 578.194,-456.697"/>
</g>
<!-- Show&#45;&gt;InviteFriend -->
<g id="edge19" class="edge"><title>Show&#45;&gt;InviteFriend</title>
<path fill="none" stroke="#1c2b10" d="M707.091,-569.099C708.995,-533.201 710.894,-497.385 712.538,-466.374"/>
<ellipse fill="none" stroke="#1c2b10" cx="706.879" cy="-573.096" rx="4" ry="4"/>
<polygon fill="#1c2b10" stroke="#1c2b10" points="712.556,-466.034 717.58,-456.287 712.821,-461.041 713.086,-456.049 713.086,-456.049 713.086,-456.049 712.821,-461.041 708.592,-455.81 712.556,-466.034 712.556,-466.034"/>
</g>
<!-- Show&#45;&gt;Notification -->
<g id="edge18" class="edge"><title>Show&#45;&gt;Notification</title>
<path fill="none" stroke="#aaf6d0" d="M790.721,-569.453C805.002,-539.21 819.261,-509.014 832.164,-481.69"/>
<ellipse fill="none" stroke="#aaf6d0" cx="788.822" cy="-573.473" rx="4.00002" ry="4.00002"/>
<polygon fill="#aaf6d0" stroke="#aaf6d0" points="832.216,-481.58 840.555,-474.459 834.351,-477.059 836.486,-472.537 836.486,-472.537 836.486,-472.537 834.351,-477.059 832.417,-470.616 832.216,-481.58 832.216,-481.58"/>
</g>
<!-- User -->
<g id="node15" class="node"><title>User</title>
<path fill="none" stroke="black" d="M351.212,-1000.4C351.212,-1000.4 531.768,-1000.4 531.768,-1000.4 537.768,-1000.4 543.768,-1006.4 543.768,-1012.4 543.768,-1012.4 543.768,-1323.6 543.768,-1323.6 543.768,-1329.6 537.768,-1335.6 531.768,-1335.6 531.768,-1335.6 351.212,-1335.6 351.212,-1335.6 345.212,-1335.6 339.212,-1329.6 339.212,-1323.6 339.212,-1323.6 339.212,-1012.4 339.212,-1012.4 339.212,-1006.4 345.212,-1000.4 351.212,-1000.4"/>
<text text-anchor="middle" x="441.49" y="-1317.6" font-family="Times,serif" font-size="14.00">User</text>
<polyline fill="none" stroke="black" points="339.212,-1310.8 543.768,-1310.8 "/>
<text text-anchor="start" x="347.212" y="-1292.8" font-family="Times,serif" font-size="14.00">id :integer</text>
<text text-anchor="start" x="347.212" y="-1276" font-family="Times,serif" font-size="14.00">email :string</text>
<text text-anchor="start" x="347.212" y="-1259.2" font-family="Times,serif" font-size="14.00">username :string</text>
<text text-anchor="start" x="347.212" y="-1242.4" font-family="Times,serif" font-size="14.00">password_hash :string</text>
<text text-anchor="start" x="347.212" y="-1225.6" font-family="Times,serif" font-size="14.00">password_salt :string</text>
<text text-anchor="start" x="347.212" y="-1208.8" font-family="Times,serif" font-size="14.00">first_name :string</text>
<text text-anchor="start" x="347.212" y="-1192" font-family="Times,serif" font-size="14.00">last_name :string</text>
<text text-anchor="start" x="347.212" y="-1175.2" font-family="Times,serif" font-size="14.00">city :string</text>
<text text-anchor="start" x="347.212" y="-1158.4" font-family="Times,serif" font-size="14.00">state :string</text>
<text text-anchor="start" x="347.212" y="-1141.6" font-family="Times,serif" font-size="14.00">country :string</text>
<text text-anchor="start" x="347.212" y="-1124.8" font-family="Times,serif" font-size="14.00">profile_video_id :integer</text>
<text text-anchor="start" x="347.212" y="-1108" font-family="Times,serif" font-size="14.00">sign_in_count :integer</text>
<text text-anchor="start" x="347.212" y="-1091.2" font-family="Times,serif" font-size="14.00">description :text</text>
<text text-anchor="start" x="347.212" y="-1074.4" font-family="Times,serif" font-size="14.00">image :string</text>
<text text-anchor="start" x="347.212" y="-1057.6" font-family="Times,serif" font-size="14.00">password_reset_token :string</text>
<text text-anchor="start" x="347.212" y="-1040.8" font-family="Times,serif" font-size="14.00">password_reset_sent_at :datetime</text>
<text text-anchor="start" x="347.212" y="-1024" font-family="Times,serif" font-size="14.00">created_at :datetime</text>
<text text-anchor="start" x="347.212" y="-1007.2" font-family="Times,serif" font-size="14.00">updated_at :datetime</text>
</g>
<!-- User&#45;&gt;Authentication -->
<g id="edge21" class="edge"><title>User&#45;&gt;Authentication</title>
<path fill="none" stroke="#9dbf4f" d="M403.957,-992.141C395.149,-951.106 386.052,-908.726 378.209,-872.183"/>
<ellipse fill="none" stroke="#9dbf4f" cx="404.849" cy="-996.297" rx="4.00001" ry="4.00001"/>
<polygon fill="#9dbf4f" stroke="#9dbf4f" points="378.129,-871.814 380.431,-861.092 377.08,-866.925 376.031,-862.037 376.031,-862.037 376.031,-862.037 377.08,-866.925 371.631,-862.981 378.129,-871.814 378.129,-871.814"/>
</g>
<!-- User&#45;&gt;Cameo -->
<g id="edge23" class="edge"><title>User&#45;&gt;Cameo</title>
<path fill="none" stroke="#80d091" d="M457.919,-992.083C465.506,-873.941 468.895,-714.812 448.49,-576 447.217,-567.337 445.653,-558.53 443.864,-549.681"/>
<ellipse fill="none" stroke="#80d091" cx="457.652" cy="-996.169" rx="4" ry="4"/>
<polygon fill="#80d091" stroke="#80d091" points="443.818,-549.463 446.154,-538.749 442.785,-544.571 441.751,-539.679 441.751,-539.679 441.751,-539.679 442.785,-544.571 437.349,-540.609 443.818,-549.463 443.818,-549.463"/>
</g>
<!-- User&#45;&gt;Comment -->
<g id="edge24" class="edge"><title>User&#45;&gt;Comment</title>
<path fill="none" stroke="#314ec9" d="M466.613,-992.256C467.937,-982.699 469.237,-973.233 470.49,-964 494.968,-783.645 521.697,-572.044 536.022,-457.334"/>
<ellipse fill="none" stroke="#314ec9" cx="466.046" cy="-996.339" rx="4.00001" ry="4.00001"/>
<polygon fill="#314ec9" stroke="#314ec9" points="536.046,-457.139 541.75,-447.773 536.666,-452.177 537.285,-447.216 537.285,-447.216 537.285,-447.216 536.666,-452.177 532.819,-446.659 536.046,-457.139 536.046,-457.139"/>
</g>
<!-- User&#45;&gt;Show -->
<g id="edge22" class="edge"><title>User&#45;&gt;Show</title>
<path fill="none" stroke="#06f07e" d="M548.415,-1000.95C554.687,-991.212 561.026,-981.367 567.372,-971.513"/>
<ellipse fill="none" stroke="#06f07e" cx="546.088" cy="-1004.57" rx="4.00002" ry="4.00002"/>
<polygon fill="#06f07e" stroke="#06f07e" points="567.534,-971.262 576.731,-965.29 570.241,-967.058 572.948,-962.854 572.948,-962.854 572.948,-962.854 570.241,-967.058 569.164,-960.418 567.534,-971.262 567.534,-971.262"/>
</g>
<!-- Video::Provider -->
<g id="node16" class="node"><title>Video::Provider</title>
<polygon fill="none" stroke="black" points="1384.8,-1143.2 1384.8,-1192.8 1490.18,-1192.8 1490.18,-1143.2 1384.8,-1143.2"/>
<text text-anchor="middle" x="1437.49" y="-1174.8" font-family="Times,serif" font-size="14.00">Video::Provider</text>
<polyline fill="none" stroke="black" points="1384.8,-1168 1490.18,-1168 "/>
<text text-anchor="middle" x="1437.49" y="-1150" font-family="Times,serif" font-size="14.00"> </text>
</g>
<!-- Video::Providers::Kultura -->
<g id="node17" class="node"><title>Video::Providers::Kultura</title>
<polygon fill="none" stroke="black" points="1266.81,-745.2 1266.81,-794.8 1428.17,-794.8 1428.17,-745.2 1266.81,-745.2"/>
<text text-anchor="middle" x="1347.49" y="-776.8" font-family="Times,serif" font-size="14.00">Video::Providers::Kultura</text>
<polyline fill="none" stroke="black" points="1266.81,-770 1428.17,-770 "/>
<text text-anchor="middle" x="1347.49" y="-752" font-family="Times,serif" font-size="14.00"> </text>
</g>
<!-- Video::Provider&#45;&gt;Video::Providers::Kultura -->
<g id="edge27" class="edge"><title>Video::Provider&#45;&gt;Video::Providers::Kultura</title>
<path fill="none" stroke="black" d="M1432.06,-1143.12C1416.4,-1074.21 1371.16,-875.147 1354.1,-800.097"/>
<polyline fill="none" stroke="black" points="1352.92,-794.911 1354.03,-799.787 "/>
</g>
<!-- Video::Providers::Wowza -->
<g id="node18" class="node"><title>Video::Providers::Wowza</title>
<polygon fill="none" stroke="black" points="1446.37,-745.2 1446.37,-794.8 1606.61,-794.8 1606.61,-745.2 1446.37,-745.2"/>
<text text-anchor="middle" x="1526.49" y="-776.8" font-family="Times,serif" font-size="14.00">Video::Providers::Wowza</text>
<polyline fill="none" stroke="black" points="1446.37,-770 1606.61,-770 "/>
<text text-anchor="middle" x="1526.49" y="-752" font-family="Times,serif" font-size="14.00"> </text>
</g>
<!-- Video::Provider&#45;&gt;Video::Providers::Wowza -->
<g id="edge28" class="edge"><title>Video::Provider&#45;&gt;Video::Providers::Wowza</title>
<path fill="none" stroke="black" d="M1442.86,-1143.12C1458.34,-1074.21 1503.08,-875.147 1519.95,-800.097"/>
<polyline fill="none" stroke="black" points="1521.12,-794.911 1520.02,-799.789 "/>
</g>
<!-- ActiveRecord::Base -->
<g id="node19" class="node"><title>ActiveRecord::Base</title>
<ellipse fill="none" stroke="black" cx="506.49" cy="-1415" rx="88.2033" ry="18"/>
<text text-anchor="middle" x="506.49" y="-1409.4" font-family="Times,serif" font-size="14.00">ActiveRecord::Base</text>
</g>
<!-- ActiveRecord::Base&#45;&gt;Api -->
<g id="edge2" class="edge"><title>ActiveRecord::Base&#45;&gt;Api</title>
<path fill="none" stroke="black" d="M476.015,-1398.04C457.093,-1388.87 431.982,-1378.01 408.49,-1372 327.816,-1351.35 91.4739,-1397.65 35.49,-1336 -14.7072,-1280.72 26.4051,-1074.11 35.49,-1000 42.1034,-946.051 57.1702,-886.517 70.1527,-841.676"/>
<polyline fill="none" stroke="black" points="71.563,-836.834 70.1648,-841.634 "/>
</g>
<!-- ActiveRecord::Base&#45;&gt;Authentication -->
<g id="edge3" class="edge"><title>ActiveRecord::Base&#45;&gt;Authentication</title>
<path fill="none" stroke="black" d="M470.131,-1398.47C419.199,-1376.64 332.546,-1339.16 330.49,-1336 238.19,-1194.14 281.964,-987.18 320.42,-867.092"/>
<polyline fill="none" stroke="black" points="322.016,-862.149 320.48,-866.907 "/>
</g>
<!-- ActiveRecord::Base&#45;&gt;Cameo -->
<g id="edge4" class="edge"><title>ActiveRecord::Base&#45;&gt;Cameo</title>
<path fill="none" stroke="black" d="M472.953,-1398.18C454.244,-1389.73 430.366,-1379.54 408.49,-1372 349.375,-1351.63 311.225,-1385.08 272.49,-1336 220.173,-1269.71 240.625,-657.296 263.49,-576 273.375,-540.855 291.219,-505.776 310.348,-474.908"/>
<polyline fill="none" stroke="black" points="313.178,-470.384 310.526,-474.623 "/>
</g>
<!-- ActiveRecord::Base&#45;&gt;Comment -->
<g id="edge5" class="edge"><title>ActiveRecord::Base&#45;&gt;Comment</title>
<path fill="none" stroke="black" d="M520.203,-1396.96C531.359,-1381.92 546.24,-1358.9 552.49,-1336 575.405,-1252.03 557.071,-667.497 549.432,-452.294"/>
<polyline fill="none" stroke="black" points="549.253,-447.279 549.431,-452.276 "/>
</g>
<!-- ActiveRecord::Base&#45;&gt;Documentation -->
<g id="edge7" class="edge"><title>ActiveRecord::Base&#45;&gt;Documentation</title>
<path fill="none" stroke="black" d="M474.543,-1398C455.728,-1389.16 431.228,-1378.66 408.49,-1372 315.092,-1344.63 270.427,-1394.29 192.49,-1336 158.657,-1310.7 138.233,-1267.51 126.357,-1231.39"/>
<polyline fill="none" stroke="black" points="124.809,-1226.57 126.338,-1231.33 "/>
</g>
<!-- ActiveRecord::Base&#45;&gt;FriendMapping -->
<g id="edge8" class="edge"><title>ActiveRecord::Base&#45;&gt;FriendMapping</title>
<path fill="none" stroke="black" d="M585.329,-1406.68C685.751,-1395.97 852.099,-1373.16 900.49,-1336 926.387,-1316.11 944.618,-1285.89 957.199,-1256.6"/>
<polyline fill="none" stroke="black" points="959.17,-1251.9 957.233,-1256.51 "/>
</g>
<!-- ActiveRecord::Base&#45;&gt;InviteFriend -->
<g id="edge9" class="edge"><title>ActiveRecord::Base&#45;&gt;InviteFriend</title>
<path fill="none" stroke="black" d="M547.9,-1399.04C578.587,-1386.22 619.73,-1365.19 647.49,-1336 774.327,-1202.62 787.976,-1143.32 829.49,-964 868.384,-795.999 876.196,-741.999 829.49,-576 824.411,-557.95 816.83,-556.259 807.49,-540 792.757,-514.353 777.285,-486.149 763.406,-460.338"/>
<polyline fill="none" stroke="black" points="761.014,-455.883 763.379,-460.288 "/>
</g>
<!-- ActiveRecord::Base&#45;&gt;Notification -->
<g id="edge10" class="edge"><title>ActiveRecord::Base&#45;&gt;Notification</title>
<path fill="none" stroke="black" d="M586.438,-1407.23C639.087,-1398.69 705.912,-1379.41 748.49,-1336 869.395,-1212.73 832.015,-1134.3 860.49,-964 888.647,-795.6 889.93,-596.628 887.371,-477.843"/>
<polyline fill="none" stroke="black" points="887.254,-472.599 887.365,-477.598 "/>
</g>
<!-- ActiveRecord::Base&#45;&gt;Parameter -->
<g id="edge11" class="edge"><title>ActiveRecord::Base&#45;&gt;Parameter</title>
<path fill="none" stroke="black" d="M473.994,-1398.14C455.203,-1389.46 430.909,-1379.07 408.49,-1372 334.008,-1348.5 287.453,-1395.18 236.49,-1336 195.386,-1288.27 179.036,-266.539 171.49,-204 170.268,-193.872 168.718,-183.305 167.009,-172.83"/>
<polyline fill="none" stroke="black" points="166.157,-167.698 166.976,-172.63 "/>
</g>
<!-- ActiveRecord::Base&#45;&gt;ProfileVideo -->
<g id="edge12" class="edge"><title>ActiveRecord::Base&#45;&gt;ProfileVideo</title>
<path fill="none" stroke="black" d="M593.166,-1411.46C729.654,-1405.88 986.652,-1388.53 1059.49,-1336 1088.9,-1314.79 1108.46,-1280.18 1121.16,-1247.95"/>
<polyline fill="none" stroke="black" points="1122.99,-1243.21 1121.19,-1247.88 "/>
</g>
<!-- ActiveRecord::Base&#45;&gt;Resource -->
<g id="edge14" class="edge"><title>ActiveRecord::Base&#45;&gt;Resource</title>
<path fill="none" stroke="black" d="M476.029,-1397.98C457.112,-1388.79 432.002,-1377.93 408.49,-1372 321.741,-1350.11 68.3904,-1401.54 7.49004,-1336 -3.67309,-1323.99 1.09153,-577.863 1.49004,-576 9.26634,-539.642 24.0621,-501.923 39.4985,-469.008"/>
<polyline fill="none" stroke="black" points="41.7799,-464.187 39.641,-468.707 "/>
</g>
<!-- ActiveRecord::Base&#45;&gt;Session -->
<g id="edge15" class="edge"><title>ActiveRecord::Base&#45;&gt;Session</title>
<path fill="none" stroke="black" d="M590.917,-1409.5C769.646,-1399.31 1174.03,-1372.48 1224.49,-1336 1258.46,-1311.44 1277.59,-1268 1288.16,-1231.59"/>
<polyline fill="none" stroke="black" points="1289.53,-1226.73 1288.17,-1231.54 "/>
</g>
<!-- ActiveRecord::Base&#45;&gt;Show -->
<g id="edge20" class="edge"><title>ActiveRecord::Base&#45;&gt;Show</title>
<path fill="none" stroke="black" d="M529.601,-1397.48C547.698,-1383.27 571.993,-1361.13 585.49,-1336 646.196,-1222.97 673.932,-1081.27 686.499,-968.05"/>
<polyline fill="none" stroke="black" points="687.049,-963.02 686.505,-967.99 "/>
</g>
<!-- ActiveRecord::Base&#45;&gt;User -->
<g id="edge25" class="edge"><title>ActiveRecord::Base&#45;&gt;User</title>
<path fill="none" stroke="black" d="M501.919,-1396.77C498.372,-1383.4 493.051,-1363.35 487.012,-1340.58"/>
<polyline fill="none" stroke="black" points="485.712,-1335.68 486.994,-1340.52 "/>
</g>
<!-- Object -->
<g id="node20" class="node"><title>Object</title>
<ellipse fill="none" stroke="black" cx="1437.49" cy="-1415" rx="36.1697" ry="18"/>
<text text-anchor="middle" x="1437.49" y="-1409.4" font-family="Times,serif" font-size="14.00">Object</text>
</g>
<!-- Object&#45;&gt;Video::Provider -->
<g id="edge26" class="edge"><title>Object&#45;&gt;Video::Provider</title>
<path fill="none" stroke="black" d="M1437.49,-1396.77C1437.49,-1355.28 1437.49,-1249.45 1437.49,-1197.99"/>
<polyline fill="none" stroke="black" points="1437.49,-1192.88 1437.49,-1197.88 "/>
</g>
</g>
</svg>
