<?xml version="1.0" encoding="UTF-8" standalone="no"?>
<!DOCTYPE svg PUBLIC "-//W3C//DTD SVG 1.1//EN"
 "http://www.w3.org/Graphics/SVG/1.1/DTD/svg11.dtd">
<!-- Generated by graphviz version 2.34.0 (20131108.0607)
 -->
<!-- Title: models_diagram Pages: 1 -->
<svg width="1324pt" height="382pt"
 viewBox="0.00 0.00 1324.38 382.00" xmlns="http://www.w3.org/2000/svg" xmlns:xlink="http://www.w3.org/1999/xlink">
<g id="graph0" class="graph" transform="scale(1 1) rotate(0) translate(4 378)">
<title>models_diagram</title>
<polygon fill="white" stroke="white" points="-4,4 -4,-378 1320.38,-378 1320.38,4 -4,4"/>
<!-- _diagram_info -->
<g id="node1" class="node"><title>_diagram_info</title>
<text text-anchor="start" x="176.692" y="-357" font-family="Times,serif" font-size="13.00">Models diagram</text>
<text text-anchor="start" x="176.692" y="-341.4" font-family="Times,serif" font-size="13.00">Date: Nov 08 2013 &#45; 12:31</text>
<text text-anchor="start" x="176.692" y="-325.8" font-family="Times,serif" font-size="13.00">Migration version: 20130806072023</text>
<text text-anchor="start" x="176.692" y="-310.2" font-family="Times,serif" font-size="13.00">Generated by RailRoady 1.1.1</text>
<text text-anchor="start" x="176.692" y="-294.6" font-family="Times,serif" font-size="13.00">http://railroady.prestonlee.com</text>
</g>
<!-- Api -->
<g id="node2" class="node"><title>Api</title>
<ellipse fill="none" stroke="black" cx="64.38" cy="-162" rx="27" ry="18"/>
<text text-anchor="middle" x="64.38" y="-156.4" font-family="Times,serif" font-size="14.00">Api</text>
</g>
<!-- Resource -->
<g id="node12" class="node"><title>Resource</title>
<ellipse fill="none" stroke="black" cx="64.38" cy="-90" rx="46.4511" ry="18"/>
<text text-anchor="middle" x="64.38" y="-84.4" font-family="Times,serif" font-size="14.00">Resource</text>
</g>
<!-- Api&#45;&gt;Resource -->
<g id="edge1" class="edge"><title>Api&#45;&gt;Resource</title>
<path fill="none" stroke="#5c78f1" d="M64.38,-135.64C64.38,-130.063 64.38,-124.132 64.38,-118.476"/>
<ellipse fill="none" stroke="#5c78f1" cx="64.3801" cy="-139.697" rx="4" ry="4"/>
<polygon fill="#5c78f1" stroke="#5c78f1" points="64.3801,-118.104 68.88,-108.104 64.3801,-113.104 64.38,-108.104 64.38,-108.104 64.38,-108.104 64.3801,-113.104 59.88,-108.104 64.3801,-118.104 64.3801,-118.104"/>
</g>
<!-- Authentication -->
<g id="node3" class="node"><title>Authentication</title>
<ellipse fill="none" stroke="black" cx="338.38" cy="-162" rx="68.14" ry="18"/>
<text text-anchor="middle" x="338.38" y="-156.4" font-family="Times,serif" font-size="14.00">Authentication</text>
</g>
<!-- Cameo -->
<g id="node4" class="node"><title>Cameo</title>
<ellipse fill="none" stroke="black" cx="383.38" cy="-90" rx="38.0859" ry="18"/>
<text text-anchor="middle" x="383.38" y="-84.4" font-family="Times,serif" font-size="14.00">Cameo</text>
</g>
<!-- Comment -->
<g id="node5" class="node"><title>Comment</title>
<ellipse fill="none" stroke="black" cx="489.38" cy="-90" rx="49.1903" ry="18"/>
<text text-anchor="middle" x="489.38" y="-84.4" font-family="Times,serif" font-size="14.00">Comment</text>
</g>
<!-- Documentation -->
<g id="node6" class="node"><title>Documentation</title>
<ellipse fill="none" stroke="black" cx="105.38" cy="-234" rx="70.3577" ry="18"/>
<text text-anchor="middle" x="105.38" y="-228.4" font-family="Times,serif" font-size="14.00">Documentation</text>
</g>
<!-- Documentation&#45;&gt;Api -->
<g id="edge6" class="edge"><title>Documentation&#45;&gt;Api</title>
<path fill="none" stroke="#c321af" d="M91.2581,-208.889C87.3255,-202.175 83.0452,-194.867 79.0802,-188.098"/>
<ellipse fill="none" stroke="#c321af" cx="93.4334" cy="-212.603" rx="4.00002" ry="4.00002"/>
<polygon fill="#c321af" stroke="#c321af" points="78.9853,-187.936 77.8142,-177.033 76.4583,-183.621 73.9313,-179.307 73.9313,-179.307 73.9313,-179.307 76.4583,-183.621 70.0483,-181.581 78.9853,-187.936 78.9853,-187.936"/>
</g>
<!-- FriendMapping -->
<g id="node7" class="node"><title>FriendMapping</title>
<ellipse fill="none" stroke="black" cx="769.38" cy="-234" rx="71.1785" ry="18"/>
<text text-anchor="middle" x="769.38" y="-228.4" font-family="Times,serif" font-size="14.00">FriendMapping</text>
</g>
<!-- InviteFriend -->
<g id="node8" class="node"><title>InviteFriend</title>
<ellipse fill="none" stroke="black" cx="615.38" cy="-90" rx="58.1637" ry="18"/>
<text text-anchor="middle" x="615.38" y="-84.4" font-family="Times,serif" font-size="14.00">InviteFriend</text>
</g>
<!-- Notification -->
<g id="node9" class="node"><title>Notification</title>
<ellipse fill="none" stroke="black" cx="749.38" cy="-90" rx="57.2568" ry="18"/>
<text text-anchor="middle" x="749.38" y="-84.4" font-family="Times,serif" font-size="14.00">Notification</text>
</g>
<!-- Parameter -->
<g id="node10" class="node"><title>Parameter</title>
<ellipse fill="none" stroke="black" cx="134.38" cy="-18" rx="50.2677" ry="18"/>
<text text-anchor="middle" x="134.38" y="-12.4" font-family="Times,serif" font-size="14.00">Parameter</text>
</g>
<!-- ProfileVideo -->
<g id="node11" class="node"><title>ProfileVideo</title>
<ellipse fill="none" stroke="black" cx="918.38" cy="-234" rx="59.2263" ry="18"/>
<text text-anchor="middle" x="918.38" y="-228.4" font-family="Times,serif" font-size="14.00">ProfileVideo</text>
</g>
<!-- Resource&#45;&gt;Parameter -->
<g id="edge13" class="edge"><title>Resource&#45;&gt;Parameter</title>
<path fill="none" stroke="#52eace" d="M86.4481,-66.9319C94.1759,-59.2041 102.882,-50.4976 110.734,-42.646"/>
<ellipse fill="none" stroke="#52eace" cx="83.4438" cy="-69.9362" rx="4.00002" ry="4.00002"/>
<polygon fill="#52eace" stroke="#52eace" points="111.162,-42.2184 121.415,-38.3293 114.697,-38.6829 118.233,-35.1473 118.233,-35.1473 118.233,-35.1473 114.697,-38.6829 115.051,-31.9653 111.162,-42.2184 111.162,-42.2184"/>
</g>
<!-- Session -->
<g id="node13" class="node"><title>Session</title>
<ellipse fill="none" stroke="black" cx="1036.38" cy="-234" rx="40.3241" ry="18"/>
<text text-anchor="middle" x="1036.38" y="-228.4" font-family="Times,serif" font-size="14.00">Session</text>
</g>
<!-- Show -->
<g id="node14" class="node"><title>Show</title>
<ellipse fill="none" stroke="black" cx="571.38" cy="-162" rx="33.0572" ry="18"/>
<text text-anchor="middle" x="571.38" y="-156.4" font-family="Times,serif" font-size="14.00">Show</text>
</g>
<!-- Show&#45;&gt;Cameo -->
<g id="edge16" class="edge"><title>Show&#45;&gt;Cameo</title>
<path fill="none" stroke="#e7dfea" d="M537.106,-148.238C504.649,-136.153 455.975,-118.03 422.124,-105.426"/>
<ellipse fill="none" stroke="#e7dfea" cx="541.094" cy="-149.723" rx="4.00001" ry="4.00001"/>
<polygon fill="#e7dfea" stroke="#e7dfea" points="421.934,-105.355 414.133,-97.6486 417.248,-103.611 412.562,-101.866 412.562,-101.866 412.562,-101.866 417.248,-103.611 410.992,-106.083 421.934,-105.355 421.934,-105.355"/>
</g>
<!-- Show&#45;&gt;Comment -->
<g id="edge17" class="edge"><title>Show&#45;&gt;Comment</title>
<path fill="none" stroke="#a73762" d="M548.006,-141.047C537.835,-132.364 525.876,-122.155 515.422,-113.231"/>
<ellipse fill="none" stroke="#a73762" cx="551.347" cy="-143.899" rx="4.00002" ry="4.00002"/>
<polygon fill="#a73762" stroke="#a73762" points="515.38,-113.195 510.696,-103.28 511.577,-109.949 507.774,-106.703 507.774,-106.703 507.774,-106.703 511.577,-109.949 504.853,-110.125 515.38,-113.195 515.38,-113.195"/>
</g>
<!-- Show&#45;&gt;InviteFriend -->
<g id="edge19" class="edge"><title>Show&#45;&gt;InviteFriend</title>
<path fill="none" stroke="#572753" d="M585.851,-137.978C590.152,-131.136 594.889,-123.599 599.287,-116.603"/>
<ellipse fill="none" stroke="#572753" cx="583.714" cy="-141.378" rx="4.00002" ry="4.00002"/>
<polygon fill="#572753" stroke="#572753" points="599.295,-116.59 608.426,-110.519 601.956,-112.357 604.616,-108.124 604.616,-108.124 604.616,-108.124 601.956,-112.357 600.807,-105.729 599.295,-116.59 599.295,-116.59"/>
</g>
<!-- Show&#45;&gt;Notification -->
<g id="edge18" class="edge"><title>Show&#45;&gt;Notification</title>
<path fill="none" stroke="#5def9c" d="M604.932,-147.805C633.402,-136.609 674.453,-120.466 705.522,-108.247"/>
<ellipse fill="none" stroke="#5def9c" cx="600.985" cy="-149.357" rx="4.00001" ry="4.00001"/>
<polygon fill="#5def9c" stroke="#5def9c" points="705.924,-108.09 716.877,-108.618 710.577,-106.26 715.23,-104.43 715.23,-104.43 715.23,-104.43 710.577,-106.26 713.583,-100.242 705.924,-108.09 705.924,-108.09"/>
</g>
<!-- User -->
<g id="node15" class="node"><title>User</title>
<ellipse fill="none" stroke="black" cx="453.38" cy="-234" rx="28.9087" ry="18"/>
<text text-anchor="middle" x="453.38" y="-228.4" font-family="Times,serif" font-size="14.00">User</text>
</g>
<!-- User&#45;&gt;Authentication -->
<g id="edge21" class="edge"><title>User&#45;&gt;Authentication</title>
<path fill="none" stroke="#5c56c4" d="M426.23,-216.474C410.263,-206.755 389.92,-194.372 372.832,-183.971"/>
<ellipse fill="none" stroke="#5c56c4" cx="429.932" cy="-218.727" rx="4.00002" ry="4.00002"/>
<polygon fill="#5c56c4" stroke="#5c56c4" points="372.775,-183.936 366.573,-174.893 368.504,-181.336 364.233,-178.737 364.233,-178.737 364.233,-178.737 368.504,-181.336 361.893,-182.581 372.775,-183.936 372.775,-183.936"/>
</g>
<!-- User&#45;&gt;Cameo -->
<g id="edge23" class="edge"><title>User&#45;&gt;Cameo</title>
<path fill="none" stroke="#039585" d="M443.988,-208.488C436.791,-190.372 426.273,-165.267 415.38,-144 410.58,-134.628 404.767,-124.667 399.42,-115.94"/>
<ellipse fill="none" stroke="#039585" cx="445.588" cy="-212.557" rx="4.00001" ry="4.00001"/>
<polygon fill="#039585" stroke="#039585" points="399.367,-115.857 397.897,-104.99 396.722,-111.613 394.078,-107.37 394.078,-107.37 394.078,-107.37 396.722,-111.613 390.259,-109.75 399.367,-115.857 399.367,-115.857"/>
</g>
<!-- User&#45;&gt;Comment -->
<g id="edge24" class="edge"><title>User&#45;&gt;Comment</title>
<path fill="none" stroke="#4cdd61" d="M459.659,-208.233C466.037,-183.076 475.888,-144.218 482.481,-118.214"/>
<ellipse fill="none" stroke="#4cdd61" cx="458.634" cy="-212.276" rx="4.00001" ry="4.00001"/>
<polygon fill="#4cdd61" stroke="#4cdd61" points="482.545,-117.961 489.364,-109.374 483.773,-113.114 485.002,-108.268 485.002,-108.268 485.002,-108.268 483.773,-113.114 480.64,-107.162 482.545,-117.961 482.545,-117.961"/>
</g>
<!-- User&#45;&gt;Show -->
<g id="edge22" class="edge"><title>User&#45;&gt;Show</title>
<path fill="none" stroke="#b99d5e" d="M480.75,-216.764C498.8,-206.056 522.458,-192.022 541.076,-180.977"/>
<ellipse fill="none" stroke="#b99d5e" cx="477.105" cy="-218.926" rx="4.00002" ry="4.00002"/>
<polygon fill="#b99d5e" stroke="#b99d5e" points="541.163,-180.925 552.06,-179.693 545.464,-178.374 549.764,-175.823 549.764,-175.823 549.764,-175.823 545.464,-178.374 547.468,-171.953 541.163,-180.925 541.163,-180.925"/>
</g>
<!-- Video::Provider -->
<g id="node16" class="node"><title>Video::Provider</title>
<polygon fill="none" stroke="black" points="1199.91,-252 1094.85,-252 1094.85,-216 1199.91,-216 1199.91,-252"/>
<text text-anchor="middle" x="1147.38" y="-228.4" font-family="Times,serif" font-size="14.00">Video::Provider</text>
</g>
<!-- Video::Providers::Kultura -->
<g id="node17" class="node"><title>Video::Providers::Kultura</title>
<polygon fill="none" stroke="black" points="1137.9,-180 976.856,-180 976.856,-144 1137.9,-144 1137.9,-180"/>
<text text-anchor="middle" x="1057.38" y="-156.4" font-family="Times,serif" font-size="14.00">Video::Providers::Kultura</text>
</g>
<!-- Video::Provider&#45;&gt;Video::Providers::Kultura -->
<g id="edge27" class="edge"><title>Video::Provider&#45;&gt;Video::Providers::Kultura</title>
<path fill="none" stroke="black" d="M1125.13,-215.697C1112.49,-205.864 1096.6,-193.501 1083.38,-183.222"/>
<polyline fill="none" stroke="black" points="1079.37,-180.104 1083.32,-183.174 "/>
</g>
<!-- Video::Providers::Wowza -->
<g id="node18" class="node"><title>Video::Providers::Wowza</title>
<polygon fill="none" stroke="black" points="1316.56,-180 1156.2,-180 1156.2,-144 1316.56,-144 1316.56,-180"/>
<text text-anchor="middle" x="1236.38" y="-156.4" font-family="Times,serif" font-size="14.00">Video::Providers::Wowza</text>
</g>
<!-- Video::Provider&#45;&gt;Video::Providers::Wowza -->
<g id="edge28" class="edge"><title>Video::Provider&#45;&gt;Video::Providers::Wowza</title>
<path fill="none" stroke="black" d="M1169.38,-215.697C1181.88,-205.864 1197.6,-193.501 1210.67,-183.222"/>
<polyline fill="none" stroke="black" points="1214.63,-180.104 1210.7,-183.195 "/>
</g>
<!-- ActiveRecord::Base -->
<g id="node19" class="node"><title>ActiveRecord::Base</title>
<ellipse fill="none" stroke="black" cx="482.38" cy="-331" rx="88.2033" ry="18"/>
<text text-anchor="middle" x="482.38" y="-325.4" font-family="Times,serif" font-size="14.00">ActiveRecord::Base</text>
</g>
<!-- ActiveRecord::Base&#45;&gt;Api -->
<g id="edge2" class="edge"><title>ActiveRecord::Base&#45;&gt;Api</title>
<path fill="none" stroke="black" d="M451.897,-314.07C432.972,-304.912 407.86,-294.056 384.38,-288 306.743,-267.976 79.1716,-311.456 25.38,-252 6.70534,-231.359 28.3049,-200.353 46.0205,-180.918"/>
<polyline fill="none" stroke="black" points="49.4988,-177.192 46.0869,-180.847 "/>
</g>
<!-- ActiveRecord::Base&#45;&gt;Authentication -->
<g id="edge3" class="edge"><title>ActiveRecord::Base&#45;&gt;Authentication</title>
<path fill="none" stroke="black" d="M467.78,-313.068C441.258,-282.31 385.25,-217.357 356.399,-183.897"/>
<polyline fill="none" stroke="black" points="353.019,-179.977 356.284,-183.763 "/>
</g>
<!-- ActiveRecord::Base&#45;&gt;Cameo -->
<g id="edge4" class="edge"><title>ActiveRecord::Base&#45;&gt;Cameo</title>
<path fill="none" stroke="black" d="M451.757,-313.938C396.114,-284.043 282.222,-219.336 261.38,-180 253.889,-165.862 252.605,-157.379 261.38,-144 279.145,-116.914 314.069,-103.598 342.016,-97.0946"/>
<polyline fill="none" stroke="black" points="347.147,-95.9577 342.265,-97.0393 "/>
</g>
<!-- ActiveRecord::Base&#45;&gt;Comment -->
<g id="edge5" class="edge"><title>ActiveRecord::Base&#45;&gt;Comment</title>
<path fill="none" stroke="black" d="M484.911,-313.007C487.124,-297.239 490.167,-273.094 491.38,-252 494.217,-202.667 492.182,-144.697 490.651,-113.541"/>
<polyline fill="none" stroke="black" points="490.392,-108.41 490.644,-113.404 "/>
</g>
<!-- ActiveRecord::Base&#45;&gt;Documentation -->
<g id="edge7" class="edge"><title>ActiveRecord::Base&#45;&gt;Documentation</title>
<path fill="none" stroke="black" d="M450.387,-314.153C431.556,-305.37 407.056,-294.87 384.38,-288 300.453,-262.572 276.489,-268.6 190.38,-252 181.777,-250.342 172.691,-248.558 163.786,-246.793"/>
<polyline fill="none" stroke="black" points="158.862,-245.814 163.766,-246.789 "/>
</g>
<!-- ActiveRecord::Base&#45;&gt;FriendMapping -->
<g id="edge8" class="edge"><title>ActiveRecord::Base&#45;&gt;FriendMapping</title>
<path fill="none" stroke="black" d="M526.595,-315.364C579.863,-297.732 668.933,-268.249 723.105,-250.318"/>
<polyline fill="none" stroke="black" points="727.912,-248.726 723.166,-250.297 "/>
</g>
<!-- ActiveRecord::Base&#45;&gt;InviteFriend -->
<g id="edge9" class="edge"><title>ActiveRecord::Base&#45;&gt;InviteFriend</title>
<path fill="none" stroke="black" d="M504.209,-313.529C535.247,-288.607 590.865,-238.019 613.38,-180 621.762,-158.401 621.013,-131.58 618.953,-113.059"/>
<polyline fill="none" stroke="black" points="618.344,-108.066 618.95,-113.029 "/>
</g>
<!-- ActiveRecord::Base&#45;&gt;Notification -->
<g id="edge10" class="edge"><title>ActiveRecord::Base&#45;&gt;Notification</title>
<path fill="none" stroke="black" d="M509.058,-313.771C532.682,-298.9 567.624,-275.66 595.38,-252 649.188,-206.134 704.671,-143.683 732.003,-111.716"/>
<polyline fill="none" stroke="black" points="735.511,-107.598 732.268,-111.404 "/>
</g>
<!-- ActiveRecord::Base&#45;&gt;Parameter -->
<g id="edge11" class="edge"><title>ActiveRecord::Base&#45;&gt;Parameter</title>
<path fill="none" stroke="black" d="M446.614,-314.463C428.081,-306.465 405.056,-296.611 384.38,-288 344.991,-271.595 328.685,-278.672 295.38,-252 219.655,-191.355 165.018,-85.7809 143.946,-40.5611"/>
<polyline fill="none" stroke="black" points="141.777,-35.8635 143.873,-40.403 "/>
</g>
<!-- ActiveRecord::Base&#45;&gt;ProfileVideo -->
<g id="edge12" class="edge"><title>ActiveRecord::Base&#45;&gt;ProfileVideo</title>
<path fill="none" stroke="black" d="M542.907,-317.757C615.767,-302.877 741.766,-276.686 849.38,-252 855.8,-250.527 862.544,-248.929 869.196,-247.323"/>
<polyline fill="none" stroke="black" points="874.259,-246.094 869.4,-247.273 "/>
</g>
<!-- ActiveRecord::Base&#45;&gt;Resource -->
<g id="edge14" class="edge"><title>ActiveRecord::Base&#45;&gt;Resource</title>
<path fill="none" stroke="black" d="M451.903,-314.045C432.981,-304.878 407.869,-294.021 384.38,-288 304.357,-267.486 69.894,-313.178 14.38,-252 -22.1367,-211.758 20.6135,-145.203 46.8613,-111.669"/>
<polyline fill="none" stroke="black" points="50.2882,-107.357 47.1771,-111.271 "/>
</g>
<!-- ActiveRecord::Base&#45;&gt;Session -->
<g id="edge15" class="edge"><title>ActiveRecord::Base&#45;&gt;Session</title>
<path fill="none" stroke="black" d="M560.051,-322.231C659.749,-311.293 837.617,-288.506 986.38,-252 991.322,-250.787 996.471,-249.301 1001.51,-247.718"/>
<polyline fill="none" stroke="black" points="1006.49,-246.108 1001.73,-247.645 "/>
</g>
<!-- ActiveRecord::Base&#45;&gt;Show -->
<g id="edge20" class="edge"><title>ActiveRecord::Base&#45;&gt;Show</title>
<path fill="none" stroke="black" d="M491.596,-312.979C500.132,-297.192 513.163,-273.035 524.38,-252 536.705,-228.887 550.712,-202.325 560.205,-184.279"/>
<polyline fill="none" stroke="black" points="562.757,-179.424 560.43,-183.85 "/>
</g>
<!-- ActiveRecord::Base&#45;&gt;User -->
<g id="edge25" class="edge"><title>ActiveRecord::Base&#45;&gt;User</title>
<path fill="none" stroke="black" d="M477.195,-313.016C472.412,-297.345 465.282,-273.99 460.071,-256.918"/>
<polyline fill="none" stroke="black" points="458.52,-251.837 459.98,-256.619 "/>
</g>
<!-- Object -->
<g id="node20" class="node"><title>Object</title>
<ellipse fill="none" stroke="black" cx="1147.38" cy="-331" rx="36.1697" ry="18"/>
<text text-anchor="middle" x="1147.38" y="-325.4" font-family="Times,serif" font-size="14.00">Object</text>
</g>
<!-- Object&#45;&gt;Video::Provider -->
<g id="edge26" class="edge"><title>Object&#45;&gt;Video::Provider</title>
<path fill="none" stroke="black" d="M1147.38,-312.576C1147.38,-297.041 1147.38,-274.217 1147.38,-257.345"/>
<polyline fill="none" stroke="black" points="1147.38,-252.314 1147.38,-257.314 "/>
</g>
</g>
</svg>
